/* XPM */
static char *button_stats[] = {
/* columns rows colors chars-per-pixel */
"97 37 68 1 ",
"  c black",
". c #1E0202",
"X c #1F0303",
"o c #210505",
"O c #270D0D",
"+ c #280E0E",
"@ c #291010",
"# c #2C1313",
"$ c #2F1717",
"% c #361E1E",
"& c #382020",
"* c #3A2424",
"= c #3F2828",
"- c #412B2B",
"; c #463030",
": c #483232",
"> c #4F3A3A",
", c #513D3D",
"< c #584545",
"1 c #5A4747",
"2 c #5B4848",
"3 c #5E4B4B",
"4 c #675555",
"5 c #6C5B5B",
"6 c #716262",
"7 c #756565",
"8 c #776868",
"9 c #786868",
"0 c #7A6C6C",
"q c #7E7171",
"w c #867B7B",
"e c #8B8080",
"r c #8D8383",
"t c #938989",
"y c #968D8D",
"u c #9D9595",
"i c #9F9797",
"p c #A09696",
"a c #A39B9B",
"s c #A8A1A1",
"d c #ADA6A6",
"f c #ADA8A8",
"g c #B2ACAC",
"h c #B6B0B0",
"j c #BDB7B7",
"k c gray75",
"l c #C3BFBF",
"z c #C0C0C0",
"x c #C5C5C5",
"c c gray78",
"v c #C8C8C8",
"b c #D0CCCC",
"n c #D0D0D0",
"m c LightGray",
"M c #D5D5D5",
"N c #D7D7D7",
"B c #D9D8D8",
"V c #DDDDDD",
"C c gray88",
"Z c gray90",
"A c #E6E6E6",
"S c #E9E9E9",
"D c gray93",
"F c gray94",
"G c #F4F4F4",
"H c #F6F6F6",
"J c gray97",
"K c #F9F9F9",
/* pixels */
"     CmckkcckkkkcclkkkcckckkcckkkkcckckkvvzkkkccklkkvvzkkkcckckkvczvzzvvzzzzvvzzzzvvzvzzvvvC     ",
"   ScBSKKKKKKKKKKKKKKKKKKKKKKKKKKKKKKKKKKKKKKKKKKKKKKKKKKKKKKKKKKKHHKHKKHKKHKKHKKHKKHKKHKKSmvS   ",
"  CvSKKKKKKKKKKKKKKKKKKKKKKKKKKKKKKKKKKKKKKKKKKKKKKKKKKKKKKKKKKKKKKHKKKKKKKKKKKKKKKKKKKKKKKKGvC  ",
" ScGKKKKKKKKKKKKKKKKKKKKKKKKKKKKKKKKKKKKKKKKKKKKKKKKKKKKKKKKKKKKKKHKKKKKKKKKKKKKKKKKKKKKKKKKKGvA ",
" cSKKKKKGKGKKKGKKGKKKKKKKKGKGKKGKKKKKGKKHHHKHHHGKKGHKHGHGKGGKGKKHHHHHKKHKKHHKHGHKKKKKGKKKGKKGKSv ",
"CmGGKGGKGKGGKKKGKGGKGGGGGGGGKGGKGGGGGKGGKGHHHHHGGKGGHGGGKGKGGKGGHHKHHHHHHKGGHHGGGGGGHKGGGGGHHKKBC",
"mCKGGGGGGGGGGGGGGGGGGGGGGGGGGGGGGGGGGGGGGGGGGGGGGGGGGGGGGGGGGGGGHGFHGGHGHGGGGGGGGGGGGGGGGGGGGGGCm",
"cSGGGGGSGGGGSGGGGSGGGGGSGGGGGGGSGGSGGGGGSGGGGGGGGGGGGGGGGGGFGGGGFHFGFFFFGGGFGGGGGGGSGGGGFGFGGGGSv",
"cGGSGGGSGGGGGGSGGGGGSGGGGGSGFGGHGSGGSGGFGGFGGGFGFGGFGGSGSGGGSGGGFFFFFFFFFFFFFFFFGSGGGGGFGSGGGGGSv",
"kSGGSSGGSSSGSGGSSSSGGSGSSSGGSGSASGGSGGSGSFFSSFFSFFSGSGSGSGGSGSGSFGFFFFFFFFFFFFFFSGGSSGSGSGGSSGSGz",
"kCSGSGSGGGSSGCSGGGGSSSGGGSHSGSSHSGSGGSGSSGFSFFFFSFGSGSGSSSGGSGSSFAFFFFFFFCFFFFFFSGSGGSSGSGSGGSSGz",
"vSSGSSSGSSSGSGSSSSSGSGSSGSSv5&.@-5gSSS..FSFSFSSSFSSGSSSGooSSSSGSFFASCGCGAGFAGCFASSSSSSGSSSSSSSGSz",
"cSSSSSSSSSSSSSSSSSSSSSSSSSkO......oSSS..SSSSSSSSSSSSSSSS..SSSSSSAFCGGCFAFGCGFCAGSSSSSSSSSSSSSSSSz",
"kCSSSSSSSSSSSSSSSSSSSSSSSS:.4vCCly:SSS..SSSSSSSSSSSSSSSS.oSSSSSSGCSSAFAFCACAAFGCSSSSSSSSSSSSSSSSk",
"vSSCSSSSSSSSCSSSSSSSSSSSSSO.NSACCSASA...o...S3-#o+,uSAC.......C0>$.&3iAAAAAGAAAASSCSSSSSSSCSSSSSk",
"cSCSCSCSCCSCSSSCCSCCSCSCCC%.iCACCSACAo......Co.....owSC.......8o......ACAAACAACASSSCSCCSSSSCSCCSk",
"kmCBCBCCCNCNCCCNCCCNCBCNNCt..;7yzBCBBC..BCCBCBCNBbu.%NCC..CBCCO.imNvr=NCCNCCCNCBCNNCCNNCNCCCCBBCk",
"cmmmmNNmNmNNmmNmmmNmNmNNNmNu;....$wmNm..NmBmNvw3-%+..mmm..mmNm$.emNNmmmmmNmmNmNmNNNNNNNBNmmNNNBBk",
"kmmcmmmmmmmmmmvmmmvmmvmmmmvmmcsw3..7mm..mmmmf$.......mmm..bmmvr..@;6fmmmmmmmmmmmmmmvmmmvmvmmmmmvk",
"kmmmmmmmmNvNmmNmmmNmNmmmNmNmmmmmma.#mm..mmmm;.;ygcv..mmm..mmmmmz8<#..wmmmmmmmBvNmmmmmmNmmmmmmvmmk",
"cNBmmmmmNNNmNmNBmNNNNNmNNNNNmNmNmc.ONN..mmmmO.vmmmmo.mNN..mmmmmNmmmu.@mNmmNNmNNNNmmNNNNNBNmNNNNmk",
"kNBBmNBBNNNNNNNBNNNNNNNNNN*qfcmmd<.<NB$.7mNm&.wvmd3..NBB#.0vBN&rkmvi.@NNNmNNNNNNNNNNNNNNBNNNBBNNk",
"kmBBBBBBBNNNNNNBNNNNNNNNNN........#zBB5.....w.....#o.BBB5.....o......3NCNNBNNBBNCNNNNNCNBNNNBBBBk",
"zNBBCBCBBNCCNCNNNCCNBCNCNNh8;@..-qvNBmm7&o#;Nw*o%7vo.BBBm7%OO;i3$.@=7mNNNCBCBBCBNNNCNCNNCNCBCBCBk",
"zCNCCCBCNCBCCBCCCCNCCBCNCNCCCNCCBCCCBCBCCCBCBCCCCBCCBCBCBBBCCBCBCNCCNCCCCNCCCBCCCCCCNCNCBCCCCBCBk",
"zCCCCCCCCCCCCCCCCCCCCCCCCCCCCCCCCCCCCCCCCCCCCCCCCCCCCCCCCCCCCCCCCCCCCCCCCCCCCCCCCCCCCCCCCCCBCCCCk",
"zCCCCCCCCCCCCCCCCCCCCCCCCCCCCCCCCCCCCCCCCCCCCCCCCCCCCCCCCCCCCCCCCCCCCCCCCCCCCCCCCCCCCCCCCCCCCCCCk",
"zCCCCACCCCCCCSCCCCCCCACACCCCACCACCCCCCCCCSCCCCCCCCCACCSCCCCSCCCCACCACCCCCCCCCCACCCCCCCCCSCCCCCCCk",
"zCACSACSSCSACSSAAAAACAAAAACAAAAACSCSCCCSSACCCAASCCSCCSACCACCACACACAAACAAACAACAAAAAAAAACACSCCSCSCk",
"vCSCSCAAASCSCACSAAAAAAACACAAAACASCSSSSCSCASASSCCSAASCSSCSSSASASSAAAAAAAAAAAAAAAAACAAAAAASCSSSSCCc",
"mCCCAACCCAGCSAFCCAFAACFAAAFACAFASSSSSSSSSSSSSSSSSSSSSSSSSSSSSSSSAAACAFACACACAAAAAFCACAAASSSSSSSBv",
"CmSGGCGGGCCGGCCGFACFFAAFFACFFAAFSSSSSSSSSSSSSSSSSSSSSSSSSSSSSSSSCFGAFAGCGFAGCFGCFAFAGGCFSSSSSSSmC",
" vCSSGGSSSSFSSSFSSSFSSSFSSSFSSSFGSSFSSSFFSSSSFSFSSSFFSSSSFSFSSSFSSGSGSSSSCSGSSSSSSSSSCSGGSSSGSCc ",
" SvSGCGCFFFSFFFSFFFSFFFSFFFSFFFSSGFSFFFFSFGFSFFSFFFFSFGFSFFSFFFFSGGCSGGSGGSGGSGGSGGSGGCGSSGSSScS ",
"  CvCGGGGFFFGFFFGFFFGFFFGFFFGFFFGFFFFFFFFFFFGFFFFFFFFFFFGFFFFFFFGSGGGSGGGSGGGSGGGSGGGSGGGGSGScC  ",
"   CvmCSFFFGFFFFFFFGFFFFFFFGFFFFFFGFGFFFFFFFFFGFGFFFFFFFFFGFGFFFGSGCGGGSGGGSGSGSGGGSGGGGGSCmcS   ",
"     CmczzzzkkkkzzzzkkkkzzzzkkkkkkkkzkkkkkkkkkkkzkkkkkkkkkkkzkkkkkkkkkcvkkkkkkkkkkkkkkkkccvC     "
};
