/* XPM */
static char *entity_lvl_7[] = {
/* columns rows colors chars-per-pixel */
"64 128 14 1 ",
"  c gray15",
". c #4B4B4B",
"X c #555555",
"o c gray36",
"O c #747474",
"+ c #7E7E7E",
"@ c magenta",
"# c gray52",
"$ c gray59",
"% c #B4B4B4",
"& c gray72",
"* c gray80",
"= c #D7D7D7",
"- c gray95",
/* pixels */
"@@@@@@@@@@@@@@@@@@@@@@@@@@@@@@@@@@@@@@@@@@@@@@@@@@@@@@@@@@@@@@@@",
"@@@@@@@@@@@@@@@@@@@@@@@@@@@@@@@@@@@@@@@@@@@@@@@@@@@@@@@@@@@@@@@@",
"@@@@@@@@@@@@@@@@@@@@@@@@@@@@@@@@@@@@@@@@@@@@@@@@@@@@@@@@@@@@@@@@",
"@@@@@@@@@@@@@@@@@@@@@@@@@@@@@@@@@@@@@@@@@@@@@@@@@@@@@@@@@@@@@@@@",
"@@@@@@@@@@@. @@@@@@@ .@@@@@@@@@@@@@@@@@@@@@. @@@@@@@ .@@@@@@@@@@",
"@@@@@@@@@@.#O ..... O#.@@@@@@@@@@@@@@@@@@@.#O ..... O#.@@@@@@@@@",
"@@@@@@@@@@.##O OOO O##.@@@@@@@@@@@@@@@@@@@.##O OOO O##.@@@@@@@@@",
"@@@@@@@@@@.###O###O###.@@@@@@@@@@@@@@@@@@@.###O###O###.@@@@@@@@@",
"@@@@@@@@@@.O#########O.@@@@@@@@@@@@@@@@@@@.O#########O.@@@@@@@@@",
"@@@@@@@@@.OO#########OO.@@@@@@@@@@@@@@@@@.OO#########OO.@@@@@@@@",
"@@@@@@@@@ OOO#######OOO @@@@@@@@@@@@@@@@@ OOO#######OOO @@@@@@@@",
"@@@@@@@@@ OOOOO###OOOOO @@@@@@@@@@@@@@@@@ OOOOO###OOOOO @@@@@@@@",
"@@@@@@@@. OOOOOOOOOOOOO ..@@@@@@@@@@@@@.. OOOOOOOOOOOOO .@@@@@@@",
"@@@@@@..OX OOOOOOOOOOO XOO..@@@@@@@@@..OOX OOOOOOOOOOO XO..@@@@@",
"@@@@@.#OOOO OOOOOOOOO OOOO##.@@@@@@@.##OOOO OOOOOOOOO OOOO#.@@@@",
"@@@@.###OOOO         OOOO###O.@@@@@.O###OOOO         OOOO###.@@@",
"@@@.O##OOOOOOOOOOOOOOOOXOO#OO.@@@@@.OO#OOXOOOOOOOOOOOOOOOO##O.@@",
"@@@.OOOO.OOOOOOOOOOOOOOO..OOO @@@@@ OOO..OOOOOOOOOOOOOOO.OOOO.@@",
"@@@ OO..OOOOOOOOOOOOOOOOOO.  @@@@@@@  .OOOOOOOOOOOOOOOOOO..OO @@",
"@@@@  XXOOOOOOOOOOOOOOOOOOX.@@@@@@@@@.XOOOOOOOOOOOOOOOOOOOX  @@@",
"@@@@@.XXOOOOOOOOOOOOOOOOOXX.@@@@@@@@@.XXOOOOOOOOOOOOOOOOOXX.@@@@",
"@@@@@.XXXOOOOOOOOOOOOOOOXXX.@@@@@@@@@.XXXOOOOOOOOOOOOOOOXXX.@@@@",
"@@@@@@ XXXXOOOOOOOOOOOXXXX @@@@@@@@@@@ XXXXOOOOOOOOOOOXXXX @@@@@",
"@@@@@@ XXXXXXXOOOOOXXXXXXX @@@@@@@@@@@ XXXXXXXOOOOOXXXXXXX @@@@@",
"@@@@@@@ XXXXXXXXXXXXXXXXX @@@@@@@@@@@@@ XXXXXXXXXXXXXXXXX @@@@@@",
"@@@@@@@.XXXXXXXXXXXXXXXXX.@@@@@@@@@@@@@.XXXXXXXXXXXXXXXXX.@@@@@@",
"@@@@@@@@.  XXXXXXXXXXX  .@@@@@@@@@@@@@@@.  XXXXXXXXXXX  .@@@@@@@",
"@@@@@@@@ ++           ++o@@@@@@@@@@@@@@@o++           ++ @@@@@@@",
"@@@@@@@@@    o@@@@@o++++ @@@@@@@@@@@@@@@ ++++o@@@@@o    @@@@@@@@",
"@@@@@@@@@@@@@@@@@@@@    @@@@@@@@@@@@@@@@@    @@@@@@@@@@@@@@@@@@@",
"@@@@@@@@@@@@@@@@@@@@@@@@@@@@@@@@@@@@@@@@@@@@@@@@@@@@@@@@@@@@@@@@",
"@@@@@@@@@@@@@@@@@@@@@@@@@@@@@@@@@@@@@@@@@@@@@@@@@@@@@@@@@@@@@@@@",
"@@@@@@@@@@@@@@@@@@@@@@@@@@@@@@@@@@@@@@@@@@@@@@@@@@@@@@@@@@@@@@@@",
"@@@@@@@@@@@@@@@@@@@@@@@@@@@@@@@@@@@@@@@@@@@@@@@@@@@@@@@@@@@@@@@@",
"@@@@@@@@@@@@@@@@@@@@@@@@@@@@@@@@@@@@@@@@@@@@@@@@@@@@@@@@@@@@@@@@",
"@@@@@@@@@@@@@@..@@@@@@@@@@@@@@@@@@@@@@@@@@@@@@..@@@@@@@@@@@@@@@@",
"@@@@@@@@@@@@@.O# @@@@@@@@@@@@@@@@@@@@@@@@@@@@.O# @@@@@@@@@@@@@@@",
"@@@@@@@@@@@@.  ## .@@@@@@@@@@@@@@@@@@@@@@@@@.  ## .@@@@@@@@@@@@@",
"@@@@@@@@@@@. #O #O..@@@@@@@@@@@@@@@@@@@@@@@. #O #O..@@@@@@@@@@@@",
"@@@@@@@@@@.O ##O ###.@@@@@@@@@@@@@@@@@@@@@.O ##O ###.@@@@@@@@@@@",
"@@@@@@@@@.OO.O#######.@@@@@@@@@@@@@@@@@@@.OO.O#######.@@@@@@@@@@",
"@@@@@@@@@.OO.O####==#.@@@@@@@@@@@@@@@@@@@.OO.O####==#.@@@@@@@@@@",
"@@@@@@@@.OOOOO####===% @@@@@@@@@@@@@@@@@.OOOOO####===% @@@@@@@@@",
"@@@@@@@@ OOOOOO#O===== @@@@@@@@@@@@@@@@@ OOOOOO#O===== @@@@@@@@@",
"@@@@@@@@ OOOOOOOO=== = @@@@@@@@@@@@@@@@@ OOOOOOOO=== = @@@@@@@@@",
"@@@@@@@.XXOOOOOOO== %%.@@@@@@@@@@@@@@@@.XXOOOOOOO== %%.@@@@@@@@@",
"@@@@@@@.OXOOOOOOO=%%-+%o@@@@@@@@@@@@@@@.OXOOOOOOO=%%-+%o@@@@@@@@",
"@@@@@@.OOOXOOOOOOO%%+==%o@@@@@@@@@@@@@.OOOXOOOOOOO%%+==%o@@@@@@@",
"@@@@@@.OOOOOOOOOOOOO====o@@@@@@@@@@@@@.OOOOOOOOOOOOO====o@@@@@@@",
"@@@@@.OOOOO###OOOOO======o@@@@@@@@@@@.OOOOOO###OOOO======o@@@@@@",
"@@@@@.OOOO####O.OO+======o@@@@@@@@@@@.OOOOO####O.O+======o@@@@@@",
"@@@@@.OOO.####O.O+=======o@@@@@@@@@@@.OOOO.####O.+=======o@@@@@@",
"@@@@@.OOO.####..X%======%o@@@@@@@@@@@.OOOO.####..%======%o@@@@@@",
"@@@@@.OOO O###.XX======%%o@@@@@@@@@@@.OOOO O###.O======%%o@@@@@@",
"@@@@@.XXO *O* XXX%====%%o@@@@@@@@@@@@.XXOOX *O* O%====%%o@@@@@@@",
"@@@@@@.XXX   XXXX%%%%%%%o@@@@@@@@@@@@@.XXXXX   XX%%%%%%%o@@@@@@@",
"@@@@@@.XXXXXXXXXX%%%%%% @@@@@@@@@@@@@@.XXXXXXXXXX%%%%%% @@@@@@@@",
"@@@@@@@ XXXXXXXXXX%%%% @@@@@@@@@@@@@@@@ XXXXXXXXXX%%%% @@@@@@@@@",
"@@@@@@@@ XXXXXXXXXXX. @@@@@@@@@@@@@@@@@@ XXXXXXXXXXX  @@@@@@@@@@",
"@@@@@@@@@  .....XX.. @@@@@@@@@@@@@@@@@@@@  XX...XXoo@@@@@@@@@@@@",
"@@@@@@@@@@@@...++++& @@@@@@@@@@@@@@@@@@@@@.++++& .@@@@@@@@@@@@@@",
"@@@@@@@@@@@@@@@     @@@@@@@@@@@@@@@@@@@@@@@     @@@@@@@@@@@@@@@@",
"@@@@@@@@@@@@@@@@@@@@@@@@@@@@@@@@@@@@@@@@@@@@@@@@@@@@@@@@@@@@@@@@",
"@@@@@@@@@@@@@@@@@@@@@@@@@@@@@@@@@@@@@@@@@@@@@@@@@@@@@@@@@@@@@@@@",
"@@@@@@@@@@@@@@@@@@@@@@@@@@@@@@@@@@@@@@@@@@@@@@@@@@@@@@@@@@@@@@@@",
"@@@@@@@@@@@@@@@@@@@@@@@@@@@@@@@@@@@@@@@@@@@@@@@@@@@@@@@@@@@@@@@@",
"@@@@@@@@@@@@@@@@@@@@@@@@@@@@@@@@@@@@@@@@@@@@@@@@@@@@@@@@@@@@@@@@",
"@@@@@@@@@@@@@@@@@@@@@@@@@@@@@@@@@@@@@@@@@@@@@@@@@@@@@@@@@@@@@@@@",
"@@@@@@@@@@@. @@@@@@@ .@@@@@@@@@@@@@@@@@@@@@. @@@@@@@ .@@@@@@@@@@",
"@@@@@@@@@@.#O ..... O#.@@@@@@@@@@@@@@@@@@@.#O ..... O#.@@@@@@@@@",
"@@@@@@@@@@.##O OOO O##.@@@@@@@@@@@@@@@@@@@.##O OOO O##.@@@@@@@@@",
"@@@@@@@@@@.O#########O.@@@@@@@@@@@@@@@@@@@.O#########O.@@@@@@@@@",
"@@@@@@@@@@.O#########O.@@@@@@@@@@@@@@@@@@@.O#########O.@@@@@@@@@",
"@@@@@@@@@.OO#=#####=#OO.@@@@@@@@@@@@@@@@@.OO#=#####=#OO.@@@@@@@@",
"@@@@@@@@@ O#===###===#O @@@@@@@@@@@@@@@@@ O#===###===#O @@@@@@@@",
"@@@@@@@@@ O=====#=====O @@@@@@@@@@@@@@@@@ O=====#=====O @@@@@@@@",
"@@@@@@@@. O===========O ...@@@@@@@@@@@... O===========O .@@@@@@@",
"@@@@@@..OX % o+===+o % XOOO..@@@@@@@..OOOX % o+===+o % XO..@@@@@",
"@@@@@.#OOOX$%=======%$XOOO###.@@@@@.###OOOX$%=======%$XOOO#.@@@@",
"@@@@.###OOOO$%-%%%-%$OOOO###*.@@@@@.*###OOOO$%-%%%-%$OOOO###.@@@",
"@@@.####OOOOO+$$$$$+OOOXOO#*.@@@@@@@.*#OOXOOO+$$$$$+OOOOO####.@@",
"@@@ *##OO OO%%=====%%OOOX.  @@@@@@@@@  .XOOO%%=====%%OO OO##* @@",
"@@@ O*O  OO%=========%OOOOX @@@@@@@@@ XOOOO%=========%OO  O*O @@",
"@@@@   XOO=============OOXX.@@@@@@@@@.XXOO=============OOX   @@@",
"@@@@@.XXXO=============OXXX.@@@@@@@@@.XXXO=============OXXX.@@@@",
"@@@@@.XXX%=============%XXX.@@@@@@@@@.XXX%=============%XXX.@@@@",
"@@@@@@.XX%%===========%%XX.@@@@@@@@@@@.XX%%===========%%XX.@@@@@",
"@@@@@@.XX%%%%=======%%%%XX.@@@@@@@@@@@.XX%%%%=======%%%%XX.@@@@@",
"@@@@@@. X$%%%%%%%%%%%%%$X .@@@@@@@@@@@. X$%%%%%%%%%%%%%$X .@@@@@",
"@@@@@@@.X+$%%%%%%%%%%%$+X.@@@@@@@@@@@@@.X+$%%%%%%%%%%%$+X.@@@@@@",
"@@@@@@@@.  $$%%%%%%%$$  .@@@@@@@@@@@@@@@.  $$%%%%%%%$$  .@@@@@@@",
"@@@@@@@@o++           ++o@@@@@@@@@@@@@@@o++           ++o@@@@@@@",
"@@@@@@@@@    o@@@@@o+&$& @@@@@@@@@@@@@@@ &$&+o@@@@@o    @@@@@@@@",
"@@@@@@@@@@@@@@@@@@@@    @@@@@@@@@@@@@@@@@    @@@@@@@@@@@@@@@@@@@",
"@@@@@@@@@@@@@@@@@@@@@@@@@@@@@@@@@@@@@@@@@@@@@@@@@@@@@@@@@@@@@@@@",
"@@@@@@@@@@@@@@@@@@@@@@@@@@@@@@@@@@@@@@@@@@@@@@@@@@@@@@@@@@@@@@@@",
"@@@@@@@@@@@@@@@@@@@@@@@@@@@@@@@@@@@@@@@@@@@@@@@@@@@@@@@@@@@@@@@@",
"@@@@@@@@@@@@@@@@@@@@@@@@@@@@@@@@@@@@@@@@@@@@@@@@@@@@@@@@@@@@@@@@",
"@@@@@@@@@@@@@@@@@@@@@@@@@@@@@@@@@@@@@@@@@@@@@@@@@@@@@@@@@@@@@@@@",
"@@@@@@@@@@@@@@@@..@@@@@@@@@@@@@@@@@@@@@@@@@@@@@@..@@@@@@@@@@@@@@",
"@@@@@@@@@@@@@@@ #O.@@@@@@@@@@@@@@@@@@@@@@@@@@@@ #O.@@@@@@@@@@@@@",
"@@@@@@@@@@@@@. ##  .@@@@@@@@@@@@@@@@@@@@@@@@@. ##  .@@@@@@@@@@@@",
"@@@@@@@@@@@@..O# O# .@@@@@@@@@@@@@@@@@@@@@@@..O# O# .@@@@@@@@@@@",
"@@@@@@@@@@@.### O## O.@@@@@@@@@@@@@@@@@@@@@.### O## O.@@@@@@@@@@",
"@@@@@@@@@@.#######O.OO.@@@@@@@@@@@@@@@@@@@.#######O.OO.@@@@@@@@@",
"@@@@@@@@@@.#==####O.OO.@@@@@@@@@@@@@@@@@@@.#==####O.OO.@@@@@@@@@",
"@@@@@@@@@ %===####OOOOO.@@@@@@@@@@@@@@@@@ %===####OOOOO.@@@@@@@@",
"@@@@@@@@@ =====O#OOOOOO @@@@@@@@@@@@@@@@@ =====O#OOOOOO @@@@@@@@",
"@@@@@@@@@ = ===OOOOOOOO @@@@@@@@@@@@@@@@@ = ===OOOOOOOO @@@@@@@@",
"@@@@@@@@@.%% ==OOOOOOOXX.@@@@@@@@@@@@@@@@.%% ==OOOOOOOXX.@@@@@@@",
"@@@@@@@@o%+-%%=OOOOOOOXO.@@@@@@@@@@@@@@@o%+-%%=OOOOOOOXO.@@@@@@@",
"@@@@@@@o%==+%%OOOOOOOXOOO.@@@@@@@@@@@@@o%==+%%OOOOOOOXOOO.@@@@@@",
"@@@@@@@o====OOOOOOOOOOOOO.@@@@@@@@@@@@@o====OOOOOOOOOOOOO.@@@@@@",
"@@@@@@o======OOOOO###OOOOO.@@@@@@@@@@@o======OOOO###OOOOOO.@@@@@",
"@@@@@@o======+OO.O####OOOO.@@@@@@@@@@@o======+O.O####OOOOO.@@@@@",
"@@@@@@o=======+O.O####.OOO.@@@@@@@@@@@o=======+.O####.OOOO.@@@@@",
"@@@@@@o%======%X..####.OOO.@@@@@@@@@@@o%======%..####.OOOO.@@@@@",
"@@@@@@o%%======XX.###O OOO.@@@@@@@@@@@o%%======O.###O OOOO.@@@@@",
"@@@@@@@o%%====%XXX *O* OXX.@@@@@@@@@@@@o%%====%O *O* XOOXX.@@@@@",
"@@@@@@@o%%%%%%%XXXX   XXX.@@@@@@@@@@@@@o%%%%%%%XX   XXXXX.@@@@@@",
"@@@@@@@@ %%%%%%XXXXXXXXXX.@@@@@@@@@@@@@@ %%%%%%XXXXXXXXXX.@@@@@@",
"@@@@@@@@@ %%%%XXXXXXXXXX @@@@@@@@@@@@@@@@ %%%%XXXXXXXXXX @@@@@@@",
"@@@@@@@@@@ .XXXXXXXXXXX @@@@@@@@@@@@@@@@@@  XXXXXXXXXXX @@@@@@@@",
"@@@@@@@@@@@ ..XX.....  @@@@@@@@@@@@@@@@@@@@@ooXX...XX  @@@@@@@@@",
"@@@@@@@@@@@ &++++...@@@@@@@@@@@@@@@@@@@@@@@@@@. &++++.@@@@@@@@@@",
"@@@@@@@@@@@@     @@@@@@@@@@@@@@@@@@@@@@@@@@@@@@@     @@@@@@@@@@@",
"@@@@@@@@@@@@@@@@@@@@@@@@@@@@@@@@@@@@@@@@@@@@@@@@@@@@@@@@@@@@@@@@",
"@@@@@@@@@@@@@@@@@@@@@@@@@@@@@@@@@@@@@@@@@@@@@@@@@@@@@@@@@@@@@@@@"
};
