/* XPM */
static char *entity_lvl_1[] = {
/* columns rows colors chars-per-pixel */
"64 128 10 1 ",
"  c gray15",
". c #5F5F5F",
"X c #6A6A6A",
"o c #7B7B7B",
"O c magenta",
"+ c #818181",
"@ c #AEAEAE",
"# c gray75",
"$ c #D7D7D7",
"% c gray95",
/* pixels */
"OOOOOOOOOOOOOOOOOOOOOOOOOOOOOOOOOOOOOOOOOOOOOOOOOOOOOOOOOOOOOOOO",
"OOOOOOOOOOOOOOOOOOOOOOOOOOOOOOOOOOOOOOOOOOOOOOOOOOOOOOOOOOOOOOOO",
"OOOOOOOOOOOOOOOOOOOOOOOOOOOOOOOOOOOOOOOOOOOOOOOOOOOOOOOOOOOOOOOO",
"OOOOOOOOOOOOOOOOOOOOOOOOOOOOOOOOOOOOOOOOOOOOOOOOOOOOOOOOOOOOOOOO",
"OOOOOOOOOOOOOOOOOOOOOOOOOOOOOOOOOOOOOOOOOOOOOOOOOOOOOOOOOOOOOOOO",
"OOOOOOOOOOOOOOOOOOOOOOOOOOOOOOOOOOOOOOOOOOOOOOOOOOOOOOOOOOOOOOOO",
"OOOOOOOOOOOOOOOOOOOOOOOOOOOOOOOOOOOOOOOOOOOOOOOOOOOOOOOOOOOOOOOO",
"OOOOOOOOOOOOOOOOOOOOOOOOOOOOOOOOOOOOOOOOOOOOOOOOOOOOOOOOOOOOOOOO",
"OOOOOOOOOOOOOOOOOOOOOOOOOOOOOOOOOOOOOOOOOOOOOOOOOOOOOOOOOOOOOOOO",
"OOOOOOOOOOOOOOOOOOOOOOOOOOOOOOOOOOOOOOOOOOOOOOOOOOOOOOOOOOOOOOOO",
"OOOOOOOOOOOOOOOOOOOOOOOOOOOOOOOOOOOOOOOOOOOOOOOOOOOOOOOOOOOOOOOO",
"OOOOOOOOOOOOOOOOOOOOOOOOOOOOOOOOOOOOOOOOOOOOOOOOOOOOOOOOOOOOOOOO",
"OOOOOOOOOOOOOOOOOOOOOOOOOOOOOOOOOOOOOOOOOOOOOOOOOOOOOOOOOOOOOOOO",
"OOOOOOOOOOOOOOOOOOOOOOOOOOOOOOOOOOOOOOOOOOOOOOOOOOOOOOOOOOOOOOOO",
"OOOOOOOOOOOOOOOOOOOOOOOOOOOOOOOOOOOOOOOOOOOOOOOOOOOOOOOOOOOOOOOO",
"OOOOOOOOOO  OO+++OO  OOOOOOOOOOOOOOOOOOOOO  OO+++OO  OOOOOOOOOOO",
"OOOOOOOOO $$ +@$$+ $$ OOOOOOOOOOOOOOOOOOO $$ +@$$+ $$ OOOOOOOOOO",
"OOOOOOOOO $$$+$$$+$$$ OOOOOOOOOOOOOOOOOOO $$$+$$$+$$$ OOOOOOOOOO",
"OOOOOOOOO $$$$$$$$$$$ OOOOOOOOOOOOOOOOOOO $$$$$$$$$$$ OOOOOOOOOO",
"OOOOOOOOO.@$$$$$$$$$@.OOOOOOOOOOOOOOOOOOO.@$$$$$$$$$@.OOOOOOOOOO",
"OOOOOOOOO.$$$$$$$$$$$.OOOOOOOOOOOOOOOOOOO.$$$$$$$$$$$.OOOOOOOOOO",
"OOOOOOOO.$$$$$$$$$$$$$.OOOOOOOOOOOOOOOOO.$$$$$$$$$$$$$.OOOOOOOOO",
"OOOOOOOO.$$$$$$$$$$$$$.OOOOOOOOOOOOOOOOO.$$$$$$$$$$$$$.OOOOOOOOO",
"OOOOOOOO $$$$$$$$$$$$$ OOOOOOOOOOOOOOOOO $$$$$$$$$$$$$ OOOOOOOOO",
"OOOOOOOO @$$$$$$$$$$$@ OOOOOOOOOOOOOOOOO @$$$$$$$$$$$@ OOOOOOOOO",
"OOOOOOOOO+@@$$$$$$$@@+OOOOOOOOOOOOOOOOOOO+@@$$$$$$$@@+OOOOOOOOOO",
"OOOOOOOOO @@@@@@@@@@@ OOOOOOOOOOOOOOOOOOO @@@@@@@@@@@ OOOOOOOOOO",
"OOOOOOOOOO +@@@@@@@+ OOOOOOOOOOOOOOOOOOOOO +@@@@@@@+ OOOOOOOOOOO",
"OOOOOOOOOOO       +@ OOOOOOOOOOOOOOOOOOOOO @+       OOOOOOOOOOOO",
"OOOOOOOOOOOOOOOOOO  OOOOOOOOOOOOOOOOOOOOOOO  OOOOOOOOOOOOOOOOOOO",
"OOOOOOOOOOOOOOOOOOOOOOOOOOOOOOOOOOOOOOOOOOOOOOOOOOOOOOOOOOOOOOOO",
"OOOOOOOOOOOOOOOOOOOOOOOOOOOOOOOOOOOOOOOOOOOOOOOOOOOOOOOOOOOOOOOO",
"OOOOOOOOOOOOOOOOOOOOOOOOOOOOOOOOOOOOOOOOOOOOOOOOOOOOOOOOOOOOOOOO",
"OOOOOOOOOOOOOOOOOOOOOOOOOOOOOOOOOOOOOOOOOOOOOOOOOOOOOOOOOOOOOOOO",
"OOOOOOOOOOOOOOOOOOOOOOOOOOOOOOOOOOOOOOOOOOOOOOOOOOOOOOOOOOOOOOOO",
"OOOOOOOOOOOOOOOOOOOOOOOOOOOOOOOOOOOOOOOOOOOOOOOOOOOOOOOOOOOOOOOO",
"OOOOOOOOOOOOOOOOOOOOOOOOOOOOOOOOOOOOOOOOOOOOOOOOOOOOOOOOOOOOOOOO",
"OOOOOOOOOOOOOOOOOOOOOOOOOOOOOOOOOOOOOOOOOOOOOOOOOOOOOOOOOOOOOOOO",
"OOOOOOOOOOOOOOOOOOOOOOOOOOOOOOOOOOOOOOOOOOOOOOOOOOOOOOOOOOOOOOOO",
"OOOOOOOOOOOOOOOOOOOOOOOOOOOOOOOOOOOOOOOOOOOOOOOOOOOOOOOOOOOOOOOO",
"OOOOOOOOOOOOOOOOOOOOOOOOOOOOOOOOOOOOOOOOOOOOOOOOOOOOOOOOOOOOOOOO",
"OOOOOOOOOOOOOOOOOOOOOOOOOOOOOOOOOOOOOOOOOOOOOOOOOOOOOOOOOOOOOOOO",
"OOOOOOOOOOOOOOOOOOOOOOOOOOOOOOOOOOOOOOOOOOOOOOOOOOOOOOOOOOOOOOOO",
"OOOOOOOOOOOOOOOOOOOOOOOOOOOOOOOOOOOOOOOOOOOOOOOOOOOOOOOOOOOOOOOO",
"OOOOOOOOOOOOOOOOOOOOOOOOOOOOOOOOOOOOOOOOOOOOOOOOOOOOOOOOOOOOOOOO",
"OOOOOOOOOOOOOOOOOOOOOOOOOOOOOOOOOOOOOOOOOOOOOOOOOOOOOOOOOOOOOOOO",
"OOOOOOOOOOOOOOOOOOOOOOOOOOOOOOOOOOOOOOOOOOOOOOOOOOOOOOOOOOOOOOOO",
"OOOOOOOOOOOOOO..OOOOOOOOOOOOOOOOOOOOOOOOOOOOOO..OOOOOOOOOOOOOOOO",
"OOOOOOOOOOOOO.@@.OO+++OOOOOOOOOOOOOOOOOOOOOOO.@@.OO+++OOOOOOOOOO",
"OOOOOOOOOOOOO.@@@.+$$$+OOOOOOOOOOOOOOOOOOOOOO.@@@.+$$$+OOOOOOOOO",
"OOOOOOOOOOOO.@  $$$$$$$+OOOOOOOOOOOOOOOOOOOO.@  $$$$$$$+OOOOOOOO",
"OOOOOOOOOOO $ $$.$$$+@$.OOOOOOOOOOOOOOOOOOO $ $$.$$$+@$.OOOOOOOO",
"OOOOOOOOOOO.$.$X$.$+@$@.OOOOOOOOOOOOOOOOOOO.$.$X$.$+@$@.OOOOOOOO",
"OOOOOOOOOO.$$@$XX$$$$+.OOOOOOOOOOOOOOOOOOO.$$@$XX$$$$+.OOOOOOOOO",
"OOOOOOOOOO.$$$$X@$$%%$$ OOOOOOOOOOOOOOOOOO.$$$$X@$$%%$$ OOOOOOOO",
"OOOOOOOOOO.$$$$$$$%o#%$ OOOOOOOOOOOOOOOOOO.$$$$$$$%o#%$ OOOOOOOO",
"OOOOOOOOOO.@$$$$$$%oo%$ OOOOOOOOOOOOOOOOOO.@$$$$$$%oo%$ OOOOOOOO",
"OOOOOOOOOO.@@@$$$@$%%$+OOOOOOOOOOOOOOOOOOO.@@@$$$@$%%$+OOOOOOOOO",
"OOOOOOOOOOO.@@@@@$.@@@ OOOOOOOOOOOOOOOOOOOO.@@@@@$.@@@ OOOOOOOOO",
"OOOOOOOOOOOO @@@+.+@+ OOOOOOOOOOOOOOOOOOOOOO ++@+.+@+ OOOOOOOOOO",
"OOOOOOOOOOOOO  .@@@ .OOOOOOOOOOOOOOOOOOOOOOOO @@@.  .OOOOOOOOOOO",
"OOOOOOOOOOOOOOOO   OOOOOOOOOOOOOOOOOOOOOOOOOOO   OOOOOOOOOOOOOOO",
"OOOOOOOOOOOOOOOOOOOOOOOOOOOOOOOOOOOOOOOOOOOOOOOOOOOOOOOOOOOOOOOO",
"OOOOOOOOOOOOOOOOOOOOOOOOOOOOOOOOOOOOOOOOOOOOOOOOOOOOOOOOOOOOOOOO",
"OOOOOOOOOOOOOOOOOOOOOOOOOOOOOOOOOOOOOOOOOOOOOOOOOOOOOOOOOOOOOOOO",
"OOOOOOOOOOOOOOOOOOOOOOOOOOOOOOOOOOOOOOOOOOOOOOOOOOOOOOOOOOOOOOOO",
"OOOOOOOOOOOOOOOOOOOOOOOOOOOOOOOOOOOOOOOOOOOOOOOOOOOOOOOOOOOOOOOO",
"OOOOOOOOOOOOOOOOOOOOOOOOOOOOOOOOOOOOOOOOOOOOOOOOOOOOOOOOOOOOOOOO",
"OOOOOOOOOOOOOOOOOOOOOOOOOOOOOOOOOOOOOOOOOOOOOOOOOOOOOOOOOOOOOOOO",
"OOOOOOOOOOOOOOOOOOOOOOOOOOOOOOOOOOOOOOOOOOOOOOOOOOOOOOOOOOOOOOOO",
"OOOOOOOOOOOOOOOOOOOOOOOOOOOOOOOOOOOOOOOOOOOOOOOOOOOOOOOOOOOOOOOO",
"OOOOOOOOOOOOOOOOOOOOOOOOOOOOOOOOOOOOOOOOOOOOOOOOOOOOOOOOOOOOOOOO",
"OOOOOOOOOOOOOOOOOOOOOOOOOOOOOOOOOOOOOOOOOOOOOOOOOOOOOOOOOOOOOOOO",
"OOOOOOOOOOOOOOOOOOOOOOOOOOOOOOOOOOOOOOOOOOOOOOOOOOOOOOOOOOOOOOOO",
"OOOOOOOOOOOOOOOOOOOOOOOOOOOOOOOOOOOOOOOOOOOOOOOOOOOOOOOOOOOOOOOO",
"OOOOOOOOOOOOOOOOOOOOOOOOOOOOOOOOOOOOOOOOOOOOOOOOOOOOOOOOOOOOOOOO",
"OOOOOOOOOOOOOOOOOOOOOOOOOOOOOOOOOOOOOOOOOOOOOOOOOOOOOOOOOOOOOOOO",
"OOOOOOOOOOOOOOOOOOOOOOOOOOOOOOOOOOOOOOOOOOOOOOOOOOOOOOOOOOOOOOOO",
"OOOOOOOOOOOOOOOOOOOOOOOOOOOOOOOOOOOOOOOOOOOOOOOOOOOOOOOOOOOOOOOO",
"OOOOOOOOOO  OOOOOOO  OOOOOOOOOOOOOOOOOOOOO  OOOOOOO  OOOOOOOOOOO",
"OOOOOOOOO $$ O+++O $$ OOOOOOOOOOOOOOOOOOO $$ O+++O $$ OOOOOOOOOO",
"OOOOOOOOO X$$ $$@ $$X OOOOOOOOOOOOOOOOOOO X$$ $$@ $$X OOOOOOOOOO",
"OOOOOOOOO XX+$$$$+$XX OOOOOOOOOOOOOOOOOOO XX+$$$$+$XX OOOOOOOOOO",
"OOOOOOOOO.@$+$$@@$$$@.OOOOOOOOOOOOOOOOOOO @$+$$@@$$$@ OOOOOOOOOO",
"OOOOOOOOO.$$$+@$+$$$$.OOOOOOOOOOOOOOOOOOO.$$$+@$+$$$$.OOOOOOOOOO",
"OOOOOOOO.$$$$$++$$$$$$.OOOOOOOOOOOOOOOOO.$$$$$++$$$$$$.OOOOOOOOO",
"OOOOOOOO.$$%%$$$$$%%$$.OOOOOOOOOOOOOOOOO.$$%%$$$$$%%$$.OOOOOOOOO",
"OOOOOOOO $%#o%$$$%#o%$ OOOOOOOOOOOOOOOOO $%#o%$$$%#o%$ OOOOOOOOO",
"OOOOOOOO @%oo%$$$%oo%@ OOOOOOOOOOOOOOOOO @%oo%$$$%oo%@ OOOOOOOOO",
"OOOOOOOOO+@%%$$+$$%%@+OOOOOOOOOOOOOOOOOOO+@%%$$+$$%%@+OOOOOOOOOO",
"OOOOOOOOO $.@@@@@@@.$ OOOOOOOOOOOOOOOOOOO $.@@@@@@@.$ OOOOOOOOOO",
"OOOOOOOOOO .+@@@@@+. OOOOOOOOOOOOOOOOOOOOO .+@@@@@+. OOOOOOOOOOO",
"OOOOOOOOOOOOO....+@ OOOOOOOOOOOOOOOOOOOOOOO @+....OOOOOOOOOOOOOO",
"OOOOOOOOOOOOOOOOO  OOOOOOOOOOOOOOOOOOOOOOOOO  OOOOOOOOOOOOOOOOOO",
"OOOOOOOOOOOOOOOOOOOOOOOOOOOOOOOOOOOOOOOOOOOOOOOOOOOOOOOOOOOOOOOO",
"OOOOOOOOOOOOOOOOOOOOOOOOOOOOOOOOOOOOOOOOOOOOOOOOOOOOOOOOOOOOOOOO",
"OOOOOOOOOOOOOOOOOOOOOOOOOOOOOOOOOOOOOOOOOOOOOOOOOOOOOOOOOOOOOOOO",
"OOOOOOOOOOOOOOOOOOOOOOOOOOOOOOOOOOOOOOOOOOOOOOOOOOOOOOOOOOOOOOOO",
"OOOOOOOOOOOOOOOOOOOOOOOOOOOOOOOOOOOOOOOOOOOOOOOOOOOOOOOOOOOOOOOO",
"OOOOOOOOOOOOOOOOOOOOOOOOOOOOOOOOOOOOOOOOOOOOOOOOOOOOOOOOOOOOOOOO",
"OOOOOOOOOOOOOOOOOOOOOOOOOOOOOOOOOOOOOOOOOOOOOOOOOOOOOOOOOOOOOOOO",
"OOOOOOOOOOOOOOOOOOOOOOOOOOOOOOOOOOOOOOOOOOOOOOOOOOOOOOOOOOOOOOOO",
"OOOOOOOOOOOOOOOOOOOOOOOOOOOOOOOOOOOOOOOOOOOOOOOOOOOOOOOOOOOOOOOO",
"OOOOOOOOOOOOOOOOOOOOOOOOOOOOOOOOOOOOOOOOOOOOOOOOOOOOOOOOOOOOOOOO",
"OOOOOOOOOOOOOOOOOOOOOOOOOOOOOOOOOOOOOOOOOOOOOOOOOOOOOOOOOOOOOOOO",
"OOOOOOOOOOOOOOOOOOOOOOOOOOOOOOOOOOOOOOOOOOOOOOOOOOOOOOOOOOOOOOOO",
"OOOOOOOOOOOOOOOOOOOOOOOOOOOOOOOOOOOOOOOOOOOOOOOOOOOOOOOOOOOOOOOO",
"OOOOOOOOOOOOOOOOOOOOOOOOOOOOOOOOOOOOOOOOOOOOOOOOOOOOOOOOOOOOOOOO",
"OOOOOOOOOOOOOOOOOOOOOOOOOOOOOOOOOOOOOOOOOOOOOOOOOOOOOOOOOOOOOOOO",
"OOOOOOOOOOOOOOOOOOOOOOOOOOOOOOOOOOOOOOOOOOOOOOOOOOOOOOOOOOOOOOOO",
"OOOOOOOOOOOOOOOOOOOOOOOOOOOOOOOOOOOOOOOOOOOOOOOOOOOOOOOOOOOOOOOO",
"OOOOOOOOOOOOOOOO..OOOOOOOOOOOOOOOOOOOOOOOOOOOOOO..OOOOOOOOOOOOOO",
"OOOOOOOOOO+++OO.@@.OOOOOOOOOOOOOOOOOOOOOOO+++OO.@@.OOOOOOOOOOOOO",
"OOOOOOOOO+$$$+.@@@.OOOOOOOOOOOOOOOOOOOOOO+$$$+.@@@.OOOOOOOOOOOOO",
"OOOOOOOO+$$$$$$$  @.OOOOOOOOOOOOOOOOOOOO+$$$$$$$  @.OOOOOOOOOOOO",
"OOOOOOOO.$@+$$$.$$ $ OOOOOOOOOOOOOOOOOOO.$@+$$$.$$ $ OOOOOOOOOOO",
"OOOOOOOO.@$@+$.$X$.$.OOOOOOOOOOOOOOOOOOO.@$@+$.$X$.$.OOOOOOOOOOO",
"OOOOOOOOO.+$$$$XX$@$$.OOOOOOOOOOOOOOOOOOO.+$$$$XX$@$$.OOOOOOOOOO",
"OOOOOOOO $$%%$$@X$$$$.OOOOOOOOOOOOOOOOOO $$%%$$@X$$$$.OOOOOOOOOO",
"OOOOOOOO $%#o%$$$$$$$.OOOOOOOOOOOOOOOOOO $%#o%$$$$$$$.OOOOOOOOOO",
"OOOOOOOO $%oo%$$$$$$@.OOOOOOOOOOOOOOOOOO $%oo%$$$$$$@.OOOOOOOOOO",
"OOOOOOOOO+$%%$@$$$@@@.OOOOOOOOOOOOOOOOOOO+$%%$@$$$@@@.OOOOOOOOOO",
"OOOOOOOOO @@@.$@@@@@.OOOOOOOOOOOOOOOOOOOO @@@.$@@@@@.OOOOOOOOOOO",
"OOOOOOOOOO +@+.+@@@ OOOOOOOOOOOOOOOOOOOOOO +@+.+@++ OOOOOOOOOOOO",
"OOOOOOOOOOO. @@@.  OOOOOOOOOOOOOOOOOOOOOOOO.  .@@@ OOOOOOOOOOOOO",
"OOOOOOOOOOOOO   OOOOOOOOOOOOOOOOOOOOOOOOOOOOOOO   OOOOOOOOOOOOOO",
"OOOOOOOOOOOOOOOOOOOOOOOOOOOOOOOOOOOOOOOOOOOOOOOOOOOOOOOOOOOOOOOO",
"OOOOOOOOOOOOOOOOOOOOOOOOOOOOOOOOOOOOOOOOOOOOOOOOOOOOOOOOOOOOOOOO"
};
