/* XPM */
static char *entity_lvl_3[] = {
/* columns rows colors chars-per-pixel */
"64 128 10 1 ",
"  c gray15",
". c #5F5F5F",
"X c #777777",
"o c #7B7B7B",
"O c magenta",
"+ c #9D9D9D",
"@ c #C5C5C5",
"# c #E4E4E4",
"$ c gray91",
"% c gray95",
/* pixels */
"OOOOOOOOOOOOOOOOOOOOOOOOOOOOOOOOOOOOOOOOOOOOOOOOOOOOOOOOOOOOOOOO",
"OOOOOOOOOOOOOOOOOOOOOOOOOOOOOOOOOOOOOOOOOOOOOOOOOOOOOOOOOOOOOOOO",
"OOOOOOOOOOOOOOOOOOOOOOOOOOOOOOOOOOOOOOOOOOOOOOOOOOOOOOOOOOOOOOOO",
"OOOOOOOOOOOOOOOOOOOOOOOOOOOOOOOOOOOOOOOOOOOOOOOOOOOOOOOOOOOOOOOO",
"OOOOOOOOOOOOOOOOOOOOOOOOOOOOOOOOOOOOOOOOOOOOOOOOOOOOOOOOOOOOOOOO",
"OOOOOOOOOOOOOOOOOOOOOOOOOOOOOOOOOOOOOOOOOOOOOOOOOOOOOOOOOOOOOOOO",
"OOOOOOOOOOOOOOOOOOOOOOOOOOOOOOOOOOOOOOOOOOOOOOOOOOOOOOOOOOOOOOOO",
"OOOOOOOOOOOOOOOOOOOOOOOOOOOOOOOOOOOOOOOOOOOOOOOOOOOOOOOOOOOOOOOO",
"OOOOOOOOOOOOOOOOOOOOOOOOOOOOOOOOOOOOOOOOOOOOOOOOOOOOOOOOOOOOOOOO",
"OOOOOOOOOOOOOOOOOOOOOOOOOOOOOOOOOOOOOOOOOOOOOOOOOOOOOOOOOOOOOOOO",
"OOOOOOOOOOOOOOOOOOOOOOOOOOOOOOOOOOOOOOOOOOOOOOOOOOOOOOOOOOOOOOOO",
"OOOOOOOOOOOOOO....OOOOOOOOOOOOOOOOOOOOOOOOOOOO....OOOOOOOOOOOOOO",
"OOOOOOOOOOOXXX@$$@XXXOOOOOOOOOOOOOOOOOOOOOOXXX@$$@XXXOOOOOOOOOOO",
"OOOOOOOOOO.$$@$$$$@$$.OOOOOOOOOOOOOOOOOOOO.$$..$$$@$$.OOOOOOOOOO",
"OOOOOOOOOO @@$$$$$$@@ OOOOOOOOOOOOOOOOOOOO @ $$.$$$@@ OOOOOOOOOO",
"OOOOOOOOOO +$...$$$$+ OOOOOOOOOOOOOOOOOOOO + @$$.$$$+ OOOOOOOOOO",
"OOOOOOOOOO.+ $$$.$$$+.OOOOOOOOOOOOOOOOOOOO.+$ @$$X$$+.OOOOOOOOOO",
"OOOOOOOOOO.@ @$$$X$$@.OOOOOOOOOOOOOOOOOOOO.@$$  $@X$@.OOOOOOOOOO",
"OOOOOOOOOO.@@   $@X@@.OOOOOOOOOOOOOOOOOOOO.@@$$$ $X@@.OOOOOOOOOO",
"OOOOOOOOOOO @@@@ $X@ OOOOOOOOOOOOOOOOOOOOOO @@@@.$+@ OOOOOOOOOOO",
"OOOOOOOOOOOO .@..$+ OOOOOOOOOOOOOOOOOOOOOOOO .@.$+. OOOOOOOOOOOO",
"OOOOOOOOOOOO.+..$++.OOOOOOOOOOOOOOOOOOOOOOOO.+.$+@+.OOOOOOOOOOOO",
"OOOOOOOOOOOO @.$+@@ OOOOOOOOOOOOOOOOOOOOOOOO @.$+@@ OOOOOOOOOOOO",
"OOOOOOOOOOO.@@.$+@@@.OOOOOOOOOOOOOOOOOOOOOO.@@.$+@@@.OOOOOOOOOOO",
"OOOOOOOOOOO.@@+.$+@@.OOOOOOOOOOOOOOOOOOOOOO.@@+.$+@@.OOOOOOOOOOO",
"OOOOOOOOOOO +@+.@+@+ OOOOOOOOOOOOOOOOOOOOOO +@+.@+@+ OOOOOOOOOOO",
"OOOOOOOOOOOO @o++o@ OOOOOOOOOOOOOOOOOOOOOOOO @o++o@ OOOOOOOOOOOO",
"OOOOOOOOOOOO.@.OO.@.OOOOOOOOOOOOOOOOOOOOOOOO.@.OO.@.OOOOOOOOOOOO",
"OOOOOOOOOOOOO..OO..OOOOOOOOOOOOOOOOOOOOOOOOOO..OO..OOOOOOOOOOOOO",
"OOOOOOOOOOOOOOOOOOOOOOOOOOOOOOOOOOOOOOOOOOOOOOOOOOOOOOOOOOOOOOOO",
"OOOOOOOOOOOOOOOOOOOOOOOOOOOOOOOOOOOOOOOOOOOOOOOOOOOOOOOOOOOOOOOO",
"OOOOOOOOOOOOOOOOOOOOOOOOOOOOOOOOOOOOOOOOOOOOOOOOOOOOOOOOOOOOOOOO",
"OOOOOOOOOOOOOOOOOOOOOOOOOOOOOOOOOOOOOOOOOOOOOOOOOOOOOOOOOOOOOOOO",
"OOOOOOOOOOOOOOOOOOOOOOOOOOOOOOOOOOOOOOOOOOOOOOOOOOOOOOOOOOOOOOOO",
"OOOOOOOOOOOOOOOOOOOOOOOOOOOOOOOOOOOOOOOOOOOOOOOOOOOOOOOOOOOOOOOO",
"OOOOOOOOOOOOOOOOOOOOOOOOOOOOOOOOOOOOOOOOOOOOOOOOOOOOOOOOOOOOOOOO",
"OOOOOOOOOOOOOOOOOOOOOOOOOOOOOOOOOOOOOOOOOOOOOOOOOOOOOOOOOOOOOOOO",
"OOOOOOOOOOOOOOOOOOOOOOOOOOOOOOOOOOOOOOOOOOOOOOOOOOOOOOOOOOOOOOOO",
"OOOOOOOOOOOOOOOOOOOOOOOOOOOOOOOOOOOOOOOOOOOOOOOOOOOOOOOOOOOOOOOO",
"OOOOOOOOOOOOOOOOOOOOOOOOOOOOOOOOOOOOOOOOOOOOOOOOOOOOOOOOOOOOOOOO",
"OOOOOOOOOOOOOOOOOOOOOOOOOOOOOOOOOOOOOOOOOOOOOOOOOOOOOOOOOOOOOOOO",
"OOOOOOOOOOOOOOOOOOOOOOOOOOOOOOOOOOOOOOOOOOOOOOOOOOOOOOOOOOOOOOOO",
"OOOOOOOOOOOOOOOOOOO. OOOOOOOOOOOOOOOOOOOOOOOOOOOOOO. OOOOOOOOOOO",
"OOOOOOOOOOOOOOOOOO @$ OOOOOOOOOOOOOOOOO..OOOOOOOOO @$ OOOOOOOOOO",
"OOOOOOOOOOOOOOOOO.++@$..OOOOOOOOOOOOOO.$$XXOOOOOO.++@$..OOOOOOOO",
"OOOOOOOO...OOOOO.+@$$$$@.OOOOOOOOOOOOO.@$$$XOOOO.+@$$$$@.OOOOOOO",
"OOOOOOO $$$.OOOO.@$XX$$$@.OOOOOOOOOOOOO.@$$$XOOO.@$XX$$$@.OOOOOO",
"OOOOOOO @$$$XOO.@$ $$+$$$.OOOOOOOOOOOOOO...@$XO.@$ $$+$$$.OOOOOO",
"OOOOOOOO   $@XO.@$ +@$$$$@.OOOOOOOOOOOOOOOO.$+O.@$ +@$$$$@.OOOOO",
"OOOOOOOOOOO $XO.@@+++$%@$$.OOOOOOOOOOOOOOOO.$+O.@@+++$%@$$.OOOOO",
"OOOOOOOOOOO.$+O @@$$$%X%@$.OOOOOOOOOOOOOOO.$+OO @@$$$%X%@$.OOOOO",
"OOOOOOOOOO.$+OOO @@$$#X @@.OOOOOOOOOOOOOOO.$oOOO @@$$#X @@.OOOOO",
"OOOOOOOOO.$+OOOOO .@@@@@..OOOOOOOOOOOOOOO.$oOOOOO .@@@@@..OOOOOO",
"OOOOOOOOO.$+OOOOO.+..  .OOOOOOOOOOOOOOOOO.$oOOOOO.+..  .OOOOOOOO",
"OOOOOOOOOO.$+OOO.+@+@.OOOOOOOOOOOOOOOOOOO @+oOOO.+@+@.OOOOOOOOOO",
"OOOOOOOOOO.@@+..+@@ $.OOOOOOOOOOOOOOOOOOOO @@o..+@@ $.OOOOOOOOOO",
"OOOOOOOOOOO .@@+@@@@  OOOOOOOOOOOOOOOOOOOOO .@@+@@@@  OOOOOOOOOO",
"OOOOOOOOOOOOO  o+@@+.OOOOOOOOOOOOOOOOOOOOOOOO  o+@@+.OOOOOOOOOOO",
"OOOOOOOOOOOOOOO.+. .OOOOOOOOOOOOOOOOOOOOOOOOOOO.+. .OOOOOOOOOOOO",
"OOOOOOOOOOOOOOO.@oOOOOOOOOOOOOOOOOOOOOOOOOOOOOO.@oOOOOOOOOOOOOOO",
"OOOOOOOOOOOOOOOooOOOOOOOOOOOOOOOOOOOOOOOOOOOOOOooOOOOOOOOOOOOOOO",
"OOOOOOOOOOOOOOOOOOOOOOOOOOOOOOOOOOOOOOOOOOOOOOOOOOOOOOOOOOOOOOOO",
"OOOOOOOOOOOOOOOOOOOOOOOOOOOOOOOOOOOOOOOOOOOOOOOOOOOOOOOOOOOOOOOO",
"OOOOOOOOOOOOOOOOOOOOOOOOOOOOOOOOOOOOOOOOOOOOOOOOOOOOOOOOOOOOOOOO",
"OOOOOOOOOOOOOOOOOOOOOOOOOOOOOOOOOOOOOOOOOOOOOOOOOOOOOOOOOOOOOOOO",
"OOOOOOOOOOOOOOOOOOOOOOOOOOOOOOOOOOOOOOOOOOOOOOOOOOOOOOOOOOOOOOOO",
"OOOOOOOOOOOOOOOOOOOOOOOOOOOOOOOOOOOOOOOOOOOOOOOOOOOOOOOOOOOOOOOO",
"OOOOOOOOOOOOOOOOOOOOOOOOOOOOOOOOOOOOOOOOOOOOOOOOOOOOOOOOOOOOOOOO",
"OOOOOOOOOOOOOOOOOOOOOOOOOOOOOOOOOOOOOOOOOOOOOOOOOOOOOOOOOOOOOOOO",
"OOOOOOOOOOOOOOOOOOO..OOOOOOOOOOOOOOOOOOOOOOOOOOOOOOOOOOOOOOOOOOO",
"OOOOOOOOOOOOOOOOOOX$$.OOOOOOOOOOOOOOOOOOOOOOOOOOOOOOOOOOOOOOOOOO",
"OOOOOOOOOOOOOOOOOX$$$.OOOOOOOOOOOOOOOOOOOOOOOOOOOO...OOOOOOOOOOO",
"OOOOOOOOOOOOOOOO+$$@.OOOOOOOOOOOOOOOOOOOOOOOOOOOO.$$$ OOOOOOOOOO",
"OOOOOOOOOOOOOOO+$@X.OOOOOOOOOOOOOOOOOOOOOOOOOOOO+$$$@ OOOOOOOOOO",
"OOOOOOOOOOOOOOO+@XOOOOOOOOOOOOOOOOOOOOOOOOOOOOO+$@XX OOOOOOOOOOO",
"OOOOOOOOOOOOO.    .OOOOOOOOOOOOOOOOOOOOOOOOOO.    .OOOOOOOOOOOOO",
"OOOOOOOOOOOXX@@@@@@XXOOOOOOOOOOOOOOOOOOOOOOXX@@@@@@XXOOOOOOOOOOO",
"OOOOOOOOOO.$$@$$$$@$$.OOOOOOOOOOOOOOOOOOOO.$$@$$$$@$$.OOOOOOOOOO",
"OOOOOOOOOO +@$$$$$$@+ OOOOOOOOOOOOOOOOOOOO +@$$$$$$@+ OOOOOOOOOO",
"OOOOOOOOOO +$$$$$$$$+ OOOOOOOOOOOOOOOOOOOO +$$$$$$$$+ OOOOOOOOOO",
"OOOOOOOOOO.@%$@$$@$%@.OOOOOOOOOOOOOOOOOOOO.@%$@$$@$%@.OOOOOOOOOO",
"OOOOOOOOOO.%X%$$$$%X%.OOOOOOOOOOOOOOOOOOOO.%X%$$$$%X%.OOOOOOOOOO",
"OOOOOOOOOO.#X $$$$ X#.OOOOOOOOOOOOOOOOOOOO.#X $$$$ X#.OOOOOOOOOO",
"OOOOOOOOOOO @@$$$$@@ OOOOOOOOOOOOOOOOOOOOOO @@$$$$@@ OOOOOOOOOOO",
"OOOOOOOOOOOO .@@@@. OOOOOOOOOOOOOOOOOOOOOOOO .@@@@. OOOOOOOOOOOO",
"OOOOOOOOOOOO.@    @.OOOOOOOOOOOOOOOOOOOOOOOO.@    @.OOOOOOOOOOOO",
"OOOOOOOOOOOO $++++$ OOOOOOOOOOOOOOOOOOOOOOOO $++++$ OOOOOOOOOOOO",
"OOOOOOOOOOO.@ @@@@ @.OOOOOOOOOOOOOOOOOOOOOO.@ @@@@ @.OOOOOOOOOOO",
"OOOOOOOOOOO.@+@@@@+@.OOOOOOOOOOOOOOOOOOOOOO.@+@@@@+@.OOOOOOOOOOO",
"OOOOOOOOOOO o++@@++o OOOOOOOOOOOOOOOOOOOOOO o++@@++o OOOOOOOOOOO",
"OOOOOOOOOOOO ..oo...OOOOOOOOOOOOOOOOOOOOOOOO ..oo...OOOOOOOOOOOO",
"OOOOOOOOOOOO.+.OO.+.OOOOOOOOOOOOOOOOOOOOOOOO.+.OO.+.OOOOOOOOOOOO",
"OOOOOOOOOOOOO..OO..OOOOOOOOOOOOOOOOOOOOOOOOOO..OO..OOOOOOOOOOOOO",
"OOOOOOOOOOOOOOOOOOOOOOOOOOOOOOOOOOOOOOOOOOOOOOOOOOOOOOOOOOOOOOOO",
"OOOOOOOOOOOOOOOOOOOOOOOOOOOOOOOOOOOOOOOOOOOOOOOOOOOOOOOOOOOOOOOO",
"OOOOOOOOOOOOOOOOOOOOOOOOOOOOOOOOOOOOOOOOOOOOOOOOOOOOOOOOOOOOOOOO",
"OOOOOOOOOOOOOOOOOOOOOOOOOOOOOOOOOOOOOOOOOOOOOOOOOOOOOOOOOOOOOOOO",
"OOOOOOOOOOOOOOOOOOOOOOOOOOOOOOOOOOOOOOOOOOOOOOOOOOOOOOOOOOOOOOOO",
"OOOOOOOOOOOOOOOOOOOOOOOOOOOOOOOOOOOOOOOOOOOOOOOOOOOOOOOOOOOOOOOO",
"OOOOOOOOOOOOOOOOOOOOOOOOOOOOOOOOOOOOOOOOOOOOOOOOOOOOOOOOOOOOOOOO",
"OOOOOOOOOOOOOOOOOOOOOOOOOOOOOOOOOOOOOOOOOOOOOOOOOOOOOOOOOOOOOOOO",
"OOOOOOOOOOOOOOOOOOOOOOOOOOOOOOOOOOOOOOOOOOOOOOOOOOOOOOOOOOOOOOOO",
"OOOOOOOOOOOOOOOOOOOOOOOOOOOOOOOOOOOOOOOOOOOOOOOOOOOOOOOOOOOOOOOO",
"OOOOOOOOOOOOOOOOOOOOOOOOOOOOOOOOOOOOOOOOOOOOOOOOOOOOOOOOOOOOOOOO",
"OOOOOOOOOOOOOOOOOOOOOOOOOOOOOOOOOOOOOOOOOOOOOOOOOOOOOOOOOOOOOOOO",
"OOOOOOOOOOOOOOOOOOOOOOOOOOOOOOOOOOOOOOOOOOOOOOOOOOOOOOOOOOOOOOOO",
"OOOOOOOOOOO .OOOOOOOOOOOOOOOOOOOOOOOOOOOOOO .OOOOOOOOOOOOOOOOOOO",
"OOOOOOOOOO $@ OOOOOOOOOOOOOOOOOOOOOOOOOOOO $@ OOOOOOOOO..OOOOOOO",
"OOOOOOOO..$@++.OOOOOOOOOOOOOOOOOOOOOOOOO..$@++.OOOOOOXX$$.OOOOOO",
"OOOOOOO.@$$$$@+.OOOOO...OOOOOOOOOOOOOOO.@$$$$@+.OOOOX$$$@.OOOOOO",
"OOOOOO.@$$$XX$@.OOOO.$$$ OOOOOOOOOOOOO.@$$$XX$@.OOOX$$$@.OOOOOOO",
"OOOOOO.$$$+$$ $@.OOX$$$@ OOOOOOOOOOOOO.$$$+$$ $@.OX$@...OOOOOOOO",
"OOOOO.@$$$$@+ $@.OX@$   OOOOOOOOOOOOO.@$$$$@+ $@.O+$.OOOOOOOOOOO",
"OOOOO.$$@%$+++@@.OX$ OOOOOOOOOOOOOOOO.$$@%$+++@@.O+$.OOOOOOOOOOO",
"OOOOO.$@%X%$$$@@ O+$.OOOOOOOOOOOOOOOO.$@%X%$$$@@ OO+$.OOOOOOOOOO",
"OOOOO.@@ X#$$@@ OOO+$.OOOOOOOOOOOOOOO.@@ X#$$@@ OOOo$.OOOOOOOOOO",
"OOOOOO..@@@@@. OOOOO+$.OOOOOOOOOOOOOOO..@@@@@. OOOOOo$.OOOOOOOOO",
"OOOOOOOO.  ..+.OOOOO+$.OOOOOOOOOOOOOOOOO.  ..+.OOOOOo$.OOOOOOOOO",
"OOOOOOOOOO.@+@+.OOO+$.OOOOOOOOOOOOOOOOOOOO.@+@+.OOOo+@ OOOOOOOOO",
"OOOOOOOOOO.$ @@+..+@@.OOOOOOOOOOOOOOOOOOOO.$ @@+..o@@ OOOOOOOOOO",
"OOOOOOOOOO  @@@@+@@. OOOOOOOOOOOOOOOOOOOOO  @@@@+@@. OOOOOOOOOOO",
"OOOOOOOOOOO.+@@+o  OOOOOOOOOOOOOOOOOOOOOOOO.+@@+o  OOOOOOOOOOOOO",
"OOOOOOOOOOOO. .+.OOOOOOOOOOOOOOOOOOOOOOOOOOO. .+.OOOOOOOOOOOOOOO",
"OOOOOOOOOOOOOOo@.OOOOOOOOOOOOOOOOOOOOOOOOOOOOOo@.OOOOOOOOOOOOOOO",
"OOOOOOOOOOOOOOOooOOOOOOOOOOOOOOOOOOOOOOOOOOOOOOooOOOOOOOOOOOOOOO",
"OOOOOOOOOOOOOOOOOOOOOOOOOOOOOOOOOOOOOOOOOOOOOOOOOOOOOOOOOOOOOOOO",
"OOOOOOOOOOOOOOOOOOOOOOOOOOOOOOOOOOOOOOOOOOOOOOOOOOOOOOOOOOOOOOOO",
"OOOOOOOOOOOOOOOOOOOOOOOOOOOOOOOOOOOOOOOOOOOOOOOOOOOOOOOOOOOOOOOO"
};
