/* XPM */
static char *entity_lvl_2[] = {
/* columns rows colors chars-per-pixel */
"64 128 9 1 ",
"  c gray15",
". c #6D6D6D",
"X c magenta",
"o c #888888",
"O c gray64",
"+ c #B4B4B4",
"@ c #BBBBBB",
"# c #DADADA",
"$ c gray95",
/* pixels */
"XXXXXXXXXXXXXXXXXXXXXXXXXXXXXXXXXXXXXXXXXXXXXXXXXXXXXXXXXXXXXXXX",
"XXXXXXXXXXXXXXXXXXXXXXXXXXXXXXXXXXXXXXXXXXXXXXXXXXXXXXXXXXXXXXXX",
"XXXXXXXXXXXXXXXXXXXXXXXXXXXXXXXXXXXXXXXXXXXXXXXXXXXXXXXXXXXXXXXX",
"XXXXXXXXXXXXXXXXXXXXXXXXXXXXXXXXXXXXXXXXXXXXXXXXXXXXXXXXXXXXXXXX",
"XXXXXXXXXXXXXXXXXXXXXXXXXXXXXXXXXXXXXXXXXXXXXXXXXXXXXXXXXXXXXXXX",
"XXXXXXXXXXXXXXXXXXXXXXXXXXXXXXXXXXXXXXXXXXXXXXXXXXXXXXXXXXXXXXXX",
"XXXXXXXXXXXXXXXXXXXXXXXXXXXXXXXXXXXXXXXXXXXXXXXXXXXXXXXXXXXXXXXX",
"XXXXXXXXXXXXXXXXXXXXXXXXXXXXXXXXXXXXXXXXXXXXXXXXXXXXXXXXXXXXXXXX",
"XXXXXXXXXXXXXXXXXXXXXXXXXXXXXXXXXXXXXXXXXXXXXXXXXXXXXXXXXXXXXXXX",
"XXXXXXXXXXXXXXXXXXXXXXXXXXXXXXXXXXXXXXXXXXXXXXXXXXXXXXXXXXXXXXXX",
"XXXXXXXXXXXXXXXXXXXXXXXXXXXXXXXXXXXXXXXXXXXXXXXXXXXXXXXXXXXXXXXX",
"XXXXXXXXXXXXXXXXXXXXXXXXXXXXXXXXXXXXXXXXXXXXXXXXXXXXXXXXXXXXXXXX",
"XXXXXXXXXXXXXXX XXXXXXXXXXXXXXXXXXXXXXXXXXXXXXX XXXXXXXXXXXXXXXX",
"XXXXXXXXXXXXX.. ..XXXXXXXXXXXXXXXXXXXXXXXXXXX.. ..XXXXXXXXXXXXXX",
"XXXXXXXXXXX.. o o ..XXXXXXXXXXXXXXXXXXXXXXX.. o o ..XXXXXXXXXXXX",
"XXXXXXXXXX oOO. .OOo XXXXXXXXXXXXXXXXXXXXX oOO. .OOo XXXXXXXXXXX",
"XXXXXXXXXX OOOOOOOOO XXXXXXXXXXXXXXXXXXXXX OOOOOOOOO XXXXXXXXXXX",
"XXXXXXXXX oOOOOOOOOOo XXXXXXXXXXXXXXXXXXX oOOOOOOOOOo XXXXXXXXXX",
"XXXXXXXXX ooOOOOOOOoo XXXXXXXXXXXXXXXXXXX ooOOOOOOOoo XXXXXXXXXX",
"XXXXXXXXX ooooOOOoooo XXXXXXXXXXXXXXXXXXX ooooOOOoooo XXXXXXXXXX",
"XXXXXXXXXX ooooooooo XXXXXXXXXXXXXXXXXXXXX ooooooooo XXXXXXXXXXX",
"XXXXXXXXXX.  ooooo  . XXXXXXXXXXXXXXXXXXX .  ooooo  .XXXXXXXXXXX",
"XXXXXXXXX OO.     .OOO XXXXXXXXXXXXXXXXX OOO.     .OO XXXXXXXXXX",
"XXXXXXXX OO.oOOOOOo.OO XXXXXXXXXXXXXXXXX OO.oOOOOOo.OO XXXXXXXXX",
"XXXXXXXX O..OOOOOOO.. XXXXXXXXXXXXXXXXXXX ..OOOOOOO..O XXXXXXXXX",
"XXXXXXXXX  ooOO.OOoo XXXXXXXXXXXXXXXXXXXXX ooOO.OOoo  XXXXXXXXXX",
"XXXXXXXXXX ooo.o.ooo XXXXXXXXXXXXXXXXXXXXX ooo.o.ooo XXXXXXXXXXX",
"XXXXXXXXXXX  ooooo  XXXXXXXXXXXXXXXXXXXXXXX  ooooo  XXXXXXXXXXXX",
"XXXXXXXXXXXXX    ++ XXXXXXXXXXXXXXXXXXXXXXX ++    XXXXXXXXXXXXXX",
"XXXXXXXXXXXXXXXXX  XXXXXXXXXXXXXXXXXXXXXXXXX  XXXXXXXXXXXXXXXXXX",
"XXXXXXXXXXXXXXXXXXXXXXXXXXXXXXXXXXXXXXXXXXXXXXXXXXXXXXXXXXXXXXXX",
"XXXXXXXXXXXXXXXXXXXXXXXXXXXXXXXXXXXXXXXXXXXXXXXXXXXXXXXXXXXXXXXX",
"XXXXXXXXXXXXXXXXXXXXXXXXXXXXXXXXXXXXXXXXXXXXXXXXXXXXXXXXXXXXXXXX",
"XXXXXXXXXXXXXXXXXXXXXXXXXXXXXXXXXXXXXXXXXXXXXXXXXXXXXXXXXXXXXXXX",
"XXXXXXXXXXXXXXXXXXXXXXXXXXXXXXXXXXXXXXXXXXXXXXXXXXXXXXXXXXXXXXXX",
"XXXXXXXXXXXXXXXXXXXXXXXXXXXXXXXXXXXXXXXXXXXXXXXXXXXXXXXXXXXXXXXX",
"XXXXXXXXXXXXXXXXXXXXXXXXXXXXXXXXXXXXXXXXXXXXXXXXXXXXXXXXXXXXXXXX",
"XXXXXXXXXXXXXXXXXXXXXXXXXXXXXXXXXXXXXXXXXXXXXXXXXXXXXXXXXXXXXXXX",
"XXXXXXXXXXXXXXXXXXXXXXXXXXXXXXXXXXXXXXXXXXXXXXXXXXXXXXXXXXXXXXXX",
"XXXXXXXXXXXXXXXXXXXXXXXXXXXXXXXXXXXXXXXXXXXXXXXXXXXXXXXXXXXXXXXX",
"XXXXXXXXXXXXXXXXXXXXXXXXXXXXXXXXXXXXXXXXXXXXXXXXXXXXXXXXXXXXXXXX",
"XXXXXXXXXXXXXXXXXXXXXXXXXXXXXXXXXXXXXXXXXXXXXXXXXXXXXXXXXXXXXXXX",
"XXXXXXXXXXXXXXXXXXXXXXXXXXXXXXXXXXXXXXXXXXXXXXXXXXXXXXXXXXXXXXXX",
"XXXXXXXXXXXXXXXXXXXXXXXXXXXXXXXXXXXXXXXXXXXXXXXXXXXXXXXXXXXXXXXX",
"XXXXXXXXXXXXXXX XXXXXXXXXXXXXXXXXXXXXXXXXXXXXXX XXXXXXXXXXXXXXXX",
"XXXXXXXXXXXXX.. ..XXXXXXXXXXXXXXXXXXXXXXXXXXX.. ..XXXXXXXXXXXXXX",
"XXXXXXXXXXXX. o o .XXXXXXXXXXXXXXXXXXXXXXXXX. o o .XXXXXXXXXXXXX",
"XXXXXXXXXXX oO. .OO.XXXXXXXXXXXXXXXXXXXXXXX oO. .OO.XXXXXXXXXXXX",
"XXXXXXXXXXX OOOOOOOO.XXXXXXXXXXXXXXXXXXXXXX OOOOOOOO.XXXXXXXXXXX",
"XXXXXXXXXX OOOOOOOOO.XXXXXXXXXXXXXXXXXXXXX OOOOOOOOO.XXXXXXXXXXX",
"XXXXXXXXXX OOOOOOOOoo.XXXXXXXXXXXXXXXXXXXX OOOOOOOOoo.XXXXXXXXXX",
"XXXXXXXXXX OOOOO$ o##+..XXXXXXXXXXXXXXXXXX OOOOO$ o##+..XXXXXXXX",
"XXXXXXXXXXX OOO@$$o+####.XXXXXXXXXXXXXXXXXX OOO@$$o+####.XXXXXXX",
"XXXXXXXXXXX .oOO@.###### XXXXXXXXXXXXXXXXXX .oOO@.###### XXXXXXX",
"XXXXXXXXXXXX .....  ### XXXXXXXXXXXXXXXXXXXX .....  ### XXXXXXXX",
"XXXXXXXXXXXX oOO.OO.   XXXXXXXXXXXXXXXXXXXXX oOO.OO.   XXXXXXXXX",
"XXXXXXXXXXX oOOO.OOO XXXXXXXXXXXXXXXXXXXXXX ooOOO.OO XXXXXXXXXXX",
"XXXXXXXXXXX o.Oo.OOO XXXXXXXXXXXXXXXXXXXXXX oo.Oo.OO XXXXXXXXXXX",
"XXXXXXXXXX Ooo..oOO XXXXXXXXXXXXXXXXXXXXXX Oooo..OO XXXXXXXXXXXX",
"XXXXXXXXXXX  ooooo..XXXXXXXXXXXXXXXXXXXXXXX .ooooo..XXXXXXXXXXXX",
"XXXXXXXXXXXXX   o++ XXXXXXXXXXXXXXXXXXXXXXXX o++..XXXXXXXXXXXXXX",
"XXXXXXXXXXXXXXXX   XXXXXXXXXXXXXXXXXXXXXXXXXX   XXXXXXXXXXXXXXXX",
"XXXXXXXXXXXXXXXXXXXXXXXXXXXXXXXXXXXXXXXXXXXXXXXXXXXXXXXXXXXXXXXX",
"XXXXXXXXXXXXXXXXXXXXXXXXXXXXXXXXXXXXXXXXXXXXXXXXXXXXXXXXXXXXXXXX",
"XXXXXXXXXXXXXXXXXXXXXXXXXXXXXXXXXXXXXXXXXXXXXXXXXXXXXXXXXXXXXXXX",
"XXXXXXXXXXXXXXXXXXXXXXXXXXXXXXXXXXXXXXXXXXXXXXXXXXXXXXXXXXXXXXXX",
"XXXXXXXXXXXXXXXXXXXXXXXXXXXXXXXXXXXXXXXXXXXXXXXXXXXXXXXXXXXXXXXX",
"XXXXXXXXXXXXXXXXXXXXXXXXXXXXXXXXXXXXXXXXXXXXXXXXXXXXXXXXXXXXXXXX",
"XXXXXXXXXXXXXXXXXXXXXXXXXXXXXXXXXXXXXXXXXXXXXXXXXXXXXXXXXXXXXXXX",
"XXXXXXXXXXXXXXXXXXXXXXXXXXXXXXXXXXXXXXXXXXXXXXXXXXXXXXXXXXXXXXXX",
"XXXXXXXXXXXXXXXXXXXXXXXXXXXXXXXXXXXXXXXXXXXXXXXXXXXXXXXXXXXXXXXX",
"XXXXXXXXXXXXXXXXXXXXXXXXXXXXXXXXXXXXXXXXXXXXXXXXXXXXXXXXXXXXXXXX",
"XXXXXXXXXXXXXXXXXXXXXXXXXXXXXXXXXXXXXXXXXXXXXXXXXXXXXXXXXXXXXXXX",
"XXXXXXXXXXXXXXXXXXXXXXXXXXXXXXXXXXXXXXXXXXXXXXXXXXXXXXXXXXXXXXXX",
"XXXXXXXXXXXXXXXXXXXXXXXXXXXXXXXXXXXXXXXXXXXXXXXXXXXXXXXXXXXXXXXX",
"XXXXXXXXXXXXXXXXXXXXXXXXXXXXXXXXXXXXXXXXXXXXXXXXXXXXXXXXXXXXXXXX",
"XXXXXXXXXXXXXXX XXXXXXXXXXXXXXXXXXXXXXXXXXXXXXX XXXXXXXXXXXXXXXX",
"XXXXXXXXXXXXX.. ..XXXXXXXXXXXXXXXXXXXXXXXXXXX.. ..XXXXXXXXXXXXXX",
"XXXXXXXXXXX.. o o ..XXXXXXXXXXXXXXXXXXXXXXX.. o o ..XXXXXXXXXXXX",
"XXXXXXXXXX oOO. .OOo XXXXXXXXXXXXXXXXXXXXX oOO. .OOo XXXXXXXXXXX",
"XXXXXXXXXX OOOOOOOOO XXXXXXXXXXXXXXXXXXXXX OOOOOOOOO XXXXXXXXXXX",
"XXXXXXXXX O$$OoooO$$O XXXXXXXXXXXXXXXXXXX O$$OoooO$$O XXXXXXXXXX",
"XXXXXXXXX @$ o###o $@ XXXXXXXXXXXXXXXXXXX @$ o###o $@ XXXXXXXXXX",
"XXXXXXXXX Oo##+#+##oO XXXXXXXXXXXXXXXXXXX Oo##+#+##oO XXXXXXXXXX",
"XXXXXXXXXX o+#####+o XXXXXXXXXXXXXXXXXXXXX o+#####+o XXXXXXXXXXX",
"XXXXXXXXXX.+#######+. XXXXXXXXXXXXXXXXXXX .+#######+.XXXXXXXXXXX",
"XXXXXXXXX O ####### OO XXXXXXXXXXXXXXXXX OO ####### O XXXXXXXXXX",
"XXXXXXXX OO. .###. .oO XXXXXXXXXXXXXXXXX Oo. .###. .OO XXXXXXXXX",
"XXXXXXXX Oo.OO...OOO. XXXXXXXXXXXXXXXXXXX .OOO...OO.oO XXXXXXXXX",
"XXXXXXXXX  OOOOOOOOO XXXXXXXXXXXXXXXXXXXXX OOOOOOOOO  XXXXXXXXXX",
"XXXXXXXXXX oOOOOOOOo XXXXXXXXXXXXXXXXXXXXX oOOOOOOOo XXXXXXXXXXX",
"XXXXXXXXXXX  oOOOo  XXXXXXXXXXXXXXXXXXXXXXX  oOOOo  XXXXXXXXXXXX",
"XXXXXXXXXXXXX.   ++ XXXXXXXXXXXXXXXXXXXXXXX ++   .XXXXXXXXXXXXXX",
"XXXXXXXXXXXXXXXXX  XXXXXXXXXXXXXXXXXXXXXXXXX  XXXXXXXXXXXXXXXXXX",
"XXXXXXXXXXXXXXXXXXXXXXXXXXXXXXXXXXXXXXXXXXXXXXXXXXXXXXXXXXXXXXXX",
"XXXXXXXXXXXXXXXXXXXXXXXXXXXXXXXXXXXXXXXXXXXXXXXXXXXXXXXXXXXXXXXX",
"XXXXXXXXXXXXXXXXXXXXXXXXXXXXXXXXXXXXXXXXXXXXXXXXXXXXXXXXXXXXXXXX",
"XXXXXXXXXXXXXXXXXXXXXXXXXXXXXXXXXXXXXXXXXXXXXXXXXXXXXXXXXXXXXXXX",
"XXXXXXXXXXXXXXXXXXXXXXXXXXXXXXXXXXXXXXXXXXXXXXXXXXXXXXXXXXXXXXXX",
"XXXXXXXXXXXXXXXXXXXXXXXXXXXXXXXXXXXXXXXXXXXXXXXXXXXXXXXXXXXXXXXX",
"XXXXXXXXXXXXXXXXXXXXXXXXXXXXXXXXXXXXXXXXXXXXXXXXXXXXXXXXXXXXXXXX",
"XXXXXXXXXXXXXXXXXXXXXXXXXXXXXXXXXXXXXXXXXXXXXXXXXXXXXXXXXXXXXXXX",
"XXXXXXXXXXXXXXXXXXXXXXXXXXXXXXXXXXXXXXXXXXXXXXXXXXXXXXXXXXXXXXXX",
"XXXXXXXXXXXXXXXXXXXXXXXXXXXXXXXXXXXXXXXXXXXXXXXXXXXXXXXXXXXXXXXX",
"XXXXXXXXXXXXXXXXXXXXXXXXXXXXXXXXXXXXXXXXXXXXXXXXXXXXXXXXXXXXXXXX",
"XXXXXXXXXXXXXXXXXXXXXXXXXXXXXXXXXXXXXXXXXXXXXXXXXXXXXXXXXXXXXXXX",
"XXXXXXXXXXXXXXXXXXXXXXXXXXXXXXXXXXXXXXXXXXXXXXXXXXXXXXXXXXXXXXXX",
"XXXXXXXXXXXXXXXXXXXXXXXXXXXXXXXXXXXXXXXXXXXXXXXXXXXXXXXXXXXXXXXX",
"XXXXXXXXXXXXXXXX XXXXXXXXXXXXXXXXXXXXXXXXXXXXXXX XXXXXXXXXXXXXXX",
"XXXXXXXXXXXXXX.. ..XXXXXXXXXXXXXXXXXXXXXXXXXXX.. ..XXXXXXXXXXXXX",
"XXXXXXXXXXXXX. o o .XXXXXXXXXXXXXXXXXXXXXXXXX. o o .XXXXXXXXXXXX",
"XXXXXXXXXXXX.OO. .Oo XXXXXXXXXXXXXXXXXXXXXXX.OO. .Oo XXXXXXXXXXX",
"XXXXXXXXXXX.OOOOOOOO XXXXXXXXXXXXXXXXXXXXXX.OOOOOOOO XXXXXXXXXXX",
"XXXXXXXXXXX.OOOOOOOOO XXXXXXXXXXXXXXXXXXXXX.OOOOOOOOO XXXXXXXXXX",
"XXXXXXXXXX.ooOOOOOOOO XXXXXXXXXXXXXXXXXXXX.ooOOOOOOOO XXXXXXXXXX",
"XXXXXXXX..+##o $OOOOO XXXXXXXXXXXXXXXXXX..+##o $OOOOO XXXXXXXXXX",
"XXXXXXX.####+o$$@OOO XXXXXXXXXXXXXXXXXX.####+o$$@OOO XXXXXXXXXXX",
"XXXXXXX ######.@OOo. XXXXXXXXXXXXXXXXXX ######.@OOo. XXXXXXXXXXX",
"XXXXXXXX ###  ..... XXXXXXXXXXXXXXXXXXXX ###  ..... XXXXXXXXXXXX",
"XXXXXXXXX   .OO.OOo XXXXXXXXXXXXXXXXXXXXX   .OO.OOo XXXXXXXXXXXX",
"XXXXXXXXXXX OOO.OOOo XXXXXXXXXXXXXXXXXXXXXX OO.OOOoo XXXXXXXXXXX",
"XXXXXXXXXXX OOO.oO.o XXXXXXXXXXXXXXXXXXXXXX OO.oO.oo XXXXXXXXXXX",
"XXXXXXXXXXXX OOo..ooO XXXXXXXXXXXXXXXXXXXXXX OO..oooO XXXXXXXXXX",
"XXXXXXXXXXXX..ooooo  XXXXXXXXXXXXXXXXXXXXXXX..ooooo. XXXXXXXXXXX",
"XXXXXXXXXXXX ++o   XXXXXXXXXXXXXXXXXXXXXXXXXXX..++o XXXXXXXXXXXX",
"XXXXXXXXXXXXX   XXXXXXXXXXXXXXXXXXXXXXXXXXXXXXXX   XXXXXXXXXXXXX",
"XXXXXXXXXXXXXXXXXXXXXXXXXXXXXXXXXXXXXXXXXXXXXXXXXXXXXXXXXXXXXXXX",
"XXXXXXXXXXXXXXXXXXXXXXXXXXXXXXXXXXXXXXXXXXXXXXXXXXXXXXXXXXXXXXXX"
};
