/* XPM */
static char *entity_lvl_5[] = {
/* columns rows colors chars-per-pixel */
"64 128 12 1 ",
"  c gray15",
". c #4E4E4E",
"X c gray36",
"o c gray44",
"O c #7E7E7E",
"+ c magenta",
"@ c gray55",
"# c gray59",
"$ c #A7A7A7",
"% c #AEAEAE",
"& c #BBBBBB",
"* c gray92",
/* pixels */
"++++++++++++++++++++++++++++++++++++++++++++++++++++++++++++++++",
"++++++++++++++++++++++++++++++++++++++++++++++++++++++++++++++++",
"++++++++++++++++++++++++++++++++++++++++++++++++++++++++++++++++",
"++++++++++++++++++++++++++++++++++++++++++++++++++++++++++++++++",
"++++++++++++++++++++++++++++++++++++++++++++++++++++++++++++++++",
"++++++++++++++++++++++++++++++++++++++++++++++++++++++++++++++++",
"++++++++++++++....++++++++++++++++++++++++++++....++++++++++++++",
"++++++++++++..@@@@..++++++++++++++++++++++++..@@@@..++++++++++++",
"+++++++++++..@@$$@@..++++++++++++++++++++++..@@$$@@..+++++++++++",
"++++++++++ $@.$$$$.@$ ++++++++++++++++++++ $@.$$$$.@$ ++++++++++",
"+++++++++ $@ $$$$$$ @$ ++++++++++++++++++ $@ $$$$$$ @$ +++++++++",
"+++++++++  o@$$$$$$@o  ++++++++++++++++++  o@$$$$$$@o  +++++++++",
"++++++++++.@@@$$$$@@@.++++++++++++++++++++.@@@$$$$@@@.++++++++++",
"++++++++++.@@@@@@O@@@.++++++++++++++++++++.@@@@@@@@@@.++++++++++",
"++++++++  $.@@@#OO@@.$  +++++++++++++++++++.@@@@@@@@.+++++++++++",
"++++++. $ $.@@#OO@@@.$ $ .+++++++++++++++++.@@@O#@@@.+++++++++++",
"+++++.$@$. $.O#OO@@.$ .$@$.++++++++++++++  $.@OO@@@.$  +++++++++",
"++++.$$$@$ $.O##OOo.$ $@$$$.++++++++++++ $ $.@O#O@o.$ $ ++++++++",
"+++.$$$@@@@.oO###Ooo.@@@@$$$.++++++++++.@$o .O#OOOo. o$@.+++++++",
"+++.$$$@@@@@..O## o.@@@@@$$$.+++++++++.$$@$@ O##OOo @$@$$.++++++",
"++ $$$@@@@@@@@.OO .@@@@@@@$$$ ++++++++.$$@@@@.O##O.@@@@$$.++++++",
"++ $@$@@@@@@@@ $ @@@@@@@@@$@$ +++++++.$$$@@@@@ #Oo@@@@@$$$.+++++",
"++   .@@@..@@ $$ @@@@..@@@.   +++++++.$$@@@@@@ O.@@@@@@@$$.+++++",
"++++++  .+... $$.@@...$.  ++++++++++ $$$@@@o. $$ @@.o@@@$$$ ++++",
"++++++++++.@ $$$@.@@@@.+++++++++++++ $@$@@.o@ $$.@@@o.@@$@$ ++++",
"+++++++++.@@ @$$@.o@@o.+++++++++++++ $o    @ $$$@.o@@    o$ ++++",
"+++++++++.o@ @@@@@oooo.+++++++++++++  +++.oo @$$@@.@@o.+++  ++++",
"+++++++++.oo @@@@@.oo ++++++++++++++++++++ o @@@@@oooo.+++++++++",
"++++++++++ .. @@@o.  ++++++++++++++++++++++ . @@@o... ++++++++++",
"+++++++++++  +    ++++++++++++++++++++++++++++    +  +++++++++++",
"++++++++++++++++++++++++++++++++++++++++++++++++++++++++++++++++",
"++++++++++++++++++++++++++++++++++++++++++++++++++++++++++++++++",
"++++++++++++++++++++++++++++++++++++++++++++++++++++++++++++++++",
"++++++++++++++++++++++++++++++++++++++++++++++++++++++++++++++++",
"++++++++++++++++++++++++++++++++++++++++++++++++++++++++++++++++",
"++++++++++++++++++++++++++++++++++++++++++++++++++++++++++++++++",
"++++++++++++++++++++++++++++++++++++++++++++++++++++++++++++++++",
"++++++++++++++++++++++++++++++++++++++++++++++++++++++++++++++++",
"++++++++++++++++++++++++++++++++++++++++++++++++++++++++++++++++",
"+++++++++++++...+++++++++++++++++++++++++++++...++++++++++++++++",
"+++++++++++++.@@..+++++++++++++++++++++++++++.@@..++++++++++++++",
"++++++++++++++..@@...+++++++++++++++++++++++++..@@...+++++++++++",
"++++++++++++  ...@@$$..++++++++++++++++++++.  ...@@$$..+++++++++",
"+++++++++++. $$$@..$$$$.++++++++++++O++++..o $$$@..$$$$.++++++++",
"++++++++++.oo..@$$$$$$$$....+++++++++O++.oooo..@$$$$$$$$....++++",
"+++++++++.oo  ...o@$$$$$@$$$.+++++++OO+.ooo  .$..o@$$$$$@$$$.+++",
"++O++++++.  $$ .o@@@%@$$$$$$.++++++OOO.o   $$ $.o@@@%@$$$$$$.+++",
"+++OO++++ $$@.. @@$@**Xo$$@$ ++++++O#O  $$$@..$ @@$@**Xo$$@$ +++",
"++++OO++ $@X@ . @@$$@*o%$$$@ +++++O## $$@oX@ o. @@$$@*o%$$$@ +++",
"+++OOO+ %@oX@  o@@@%$$$$$@% ++++++O# $@oOoX@ o o@@@%$$$$$@% ++++",
"++O#OO+ $ooXX@..@@@o$$$@.  +++++++OO %OoOXXX@ ..@@@o$$$@.  +++++",
"+O#OOO $#oOXXX@@@@@@o.  +++++++++++ $@oOoXXXX@@@@@@@o.  ++++++++",
"+O#OOO $oXOXXXX@@@@#.++++++++++++++ $oXXoXXXXXX@@@@#.+++++++++++",
"+O##O$ $ $XX$X@@o$o#.++++++++++++++ $ $%XXX%$X@@o$o#.+++++++++++",
"+OO#O$  $$$X.@@@.@$.&.+++++++++++++  o$$$X$$.@@$.@$.&.++++++++++",
"++OO..$$$$$.o@@$$.$.&.++++++++++++++.@..$$$.o@$$$.$.&.++++++++++",
"+++.@@....o@@@$$$$.o&.++++++++++++++.@@@...@@@$$$$.o&.++++++++++",
"++++.@@@@@@@o@$$$$@&#.+++++++++++++++.@@@@@@o@@$$$@&#.++++++++++",
"+++++.o@@@@@.@@$$@o#.+++++++++++++++++.o@@@@o.@@$$o#.+++++++++++",
"++++++...o@@ o@oo...+++++++++++++++++++...o@@ o@@o..++++++++++++",
"+++++++++... @@% .++++++++++++++++++++++++.... @@% +++++++++++++",
"+++++++++++++   +++++++++++++++++++++++++++++++   ++++++++++++++",
"++++++++++++++++++++++++++++++++++++++++++++++++++++++++++++++++",
"++++++++++++++++++++++++++++++++++++++++++++++++++++++++++++++++",
"++++++++++++++++++++++++++++++++++++++++++++++++++++++++++++++++",
"++++++++++++++++++++++++++++++++++++++++++++++++++++++++++++++++",
"++++++++++++++++++++++++++++++++++++++++++++++++++++++++++++++++",
"++++++++++++++++++++++++++++++++++++++++++++++++++++++++++++++++",
"++++++++++++++++++++++++++++++++++++++++++++++++++++++++++++++++",
"++++++++++++++++++++++++++++++++++++++++++++++++++++++++++++++++",
"++++++++++++.++++++.++++++++++++++++++++++++.++++++.++++++++++++",
"+++++++++++.$.++++.$.++++++++++++++++++++++.$.++++.$.+++++++++++",
"+++++++++++ $.++++.$ ++++++++++++++++++++++ $.++++.$ +++++++++++",
"+++++++++++ $.oooo.$ ++++++++++++++++++++++ $.oooo.$ +++++++++++",
"+++++++++++ $$.$$.$$ +++++++++++++++...+..+ $$.$$.$$ +..+...++++",
"+++++++++++ @$o$$o$@ ++++++++++++++.@@@.@.+ @$o$$o$@ +.@.@@@.+++",
"++++++++..+.@$@$$@$@.+..++++++++++.@XXXo@.+.@$@$$@$@.+.@oXXX@.++",
"++++++..@.+.o$$$$$$o.+.@..++++++++.XoOOoo.+.o$$$$$$o.+.oOooOX.++",
"+++++.@o@. o$$$$$$$$o .@o@.+++++++++XOoOoo o$$$$$$$$o oooOoX++++",
"++++.@Ooo. @*$$$$$$*@ .oOo@.+++++++++XoXXo @*$$$$$$*@ oXXOX+++++",
"+++.@oOOXo $*o%$$$o*$ oXooO@.++++++++XXXXo $*o%$$$o*$ oXXXX+++++",
"+++.@OoXXo $$X@$$@X%$ oXXOo@.++++++++XXXXX $$X@$$@X%$ XXXXX+++++",
"++.@ooXXXXo.$$$$$$$$.oXXXXOo@.+++++++++XXXo.$$$$$$$$.oXXX+++++++",
"++.@XXXXXXX @$$$$$$@ XXXXXXX@.+++++++++++XX @$$$$$$@ XX+++++++++",
"++..+++XXX @ $@$$@$ @ XXX+++..++++++++++++.@ $@$$@$ @.++++++++++",
"++++++++++.$@.%@@%.@$.++++++++++++++++++++.$@.%@@%.@$.++++++++++",
"+++++++++ $@.#.  .#.@$ ++++++++++++++++++ $@.#.  .#.@$ +++++++++",
"++++++++  @.#&####&#.@ ++++++++++++++++++ @.#&####&#.@  ++++++++",
"++++++++ @.o#&&&&&&#o.@ ++++++++++++++++ @.o#&&&&&&#o.@ ++++++++",
"++++++++ o@@##&&&&##@@@ ++++++++++++++++ @@@##&&&&##@@o ++++++++",
"+++++++++ @@ ###### @@o ++++++++++++++++ o@@ ###### @@ +++++++++",
"+++++++++ ooo #### ooo ++++++++++++++++++ ooo #### ooo +++++++++",
"++++++++++   ..... %o% ++++++++++++++++++ %o% .....   ++++++++++",
"+++++++++++++++++++   ++++++++++++++++++++   +++++++++++++++++++",
"++++++++++++++++++++++++++++++++++++++++++++++++++++++++++++++++",
"++++++++++++++++++++++++++++++++++++++++++++++++++++++++++++++++",
"++++++++++++++++++++++++++++++++++++++++++++++++++++++++++++++++",
"++++++++++++++++++++++++++++++++++++++++++++++++++++++++++++++++",
"++++++++++++++++++++++++++++++++++++++++++++++++++++++++++++++++",
"++++++++++++++++++++++++++++++++++++++++++++++++++++++++++++++++",
"++++++++++++++++++++++++++++++++++++++++++++++++++++++++++++++++",
"++++++++++++++++++++++++++++++++++++++++++++++++++++++++++++++++",
"++++++++++++++++++++++++++++++++++++++++++++++++++++++++++++++++",
"++++++++++++++++...+++++++++++++++++++++++++++++...+++++++++++++",
"++++++++++++++..@@.+++++++++++++++++++++++++++..@@.+++++++++++++",
"+++++++++++...@@..+++++++++++++++++++++++++...@@..++++++++++++++",
"+++++++++..$$@@...  +++++++++++++++++++++..$$@@...  .+++++++++++",
"++++++++.$$$$..@$$$ .+++++++++++++++++++.$$$$..@$$$ o..++++O++++",
"++++....$$$$$$$$@..oo.++++++++++++++....$$$$$$$$@..oooo.++O+++++",
"+++.$$$@$$$$$@o...  oo.++++++++++++.$$$@$$$$$@o..$.  ooo.+OO++++",
"+++.$$$$$$@%@@@o. $$  .++++++O+++++.$$$$$$@%@@@o.$ $$   o.OOO+++",
"+++ $@$$oX**@$@@ ..@$$ ++++OO++++++ $@$$oX**@$@@ $..@$$$  O#O+++",
"+++ @$$$%o*@$$@@ . @X@% ++OO+++++++ @$$$$o*@$$@@ .o @Xo@$$ ##O++",
"++++ %@$$$$$$@@@o  @Xo@$ +OOO+++++++ %@$$$$%$@@@o o @XOOo@$ #O++",
"+++++  .@$$$o@@@..@XXOo% +OO#O+++++++  .@$$$o@@@.. @XXXoOo$ OO++",
"++++++++  .o@@@@@@XXXoO@$ OOO#O+++++++++  .o@@@@@@@XXXXOoO@$ +++",
"+++++++++++.#@@@@XXXXoXo$ OOO#O++++++++++++.#@@@@XXXXXXoXXo% +++",
"+++++++++++.#o$o@@X$XX$ $ $O##O++++++++++++.#o$o@@X$$XXX%$ $ +++",
"++++++++++.&.$@.@@@.X$$$  $O#OO+++++++++++.&.$@.$@@.$$X$$$o  +++",
"++++++++++.&.$.$$@@o.%$$$$..OO++++++++++++.&.$.$$$@o.$$$..@.++++",
"++++++++++.&o.$$$$@@@o....@@.+++++++++++++.&o.$$$$@@@...@@@.++++",
"++++++++++.#&@$$$$@o@@@@@@@.++++++++++++++.#&@$$$@@o@@@@@@.+++++",
"+++++++++++.#o@$$@@.@@@@@o.++++++++++++++++.#o$$@@.o@@@@o.++++++",
"++++++++++++...oo@o @@o...++++++++++++++++++..o@@o @@o...+++++++",
"++++++++++++++. %@@ ...++++++++++++++++++++++ %@@ ....++++++++++",
"++++++++++++++++   +++++++++++++++++++++++++++   +++++++++++++++",
"++++++++++++++++++++++++++++++++++++++++++++++++++++++++++++++++",
"++++++++++++++++++++++++++++++++++++++++++++++++++++++++++++++++"
};
