/* XPM */
static char *entity_lvl_6[] = {
/* columns rows colors chars-per-pixel */
"64 128 13 1 ",
"  c gray15",
". c #484848",
"X c #5F5F5F",
"o c #6A6A6A",
"O c #7B7B7B",
"+ c magenta",
"@ c #888888",
"# c gray59",
"$ c gray60",
"% c #9D9D9D",
"& c #AEAEAE",
"* c gray76",
"= c gray95",
/* pixels */
"++++++++++++++++++++++++++++++++++++++++++++++++++++++++++++++++",
"++++++++++++++++++++++++++++++++++++++++++++++++++++++++++++++++",
"++++++++++++++++++++++++++++++++++++++++++++++++++++++++++++++++",
"++++++++++++++++++++++++++++++++++++++++++++++++++++++++++++++++",
"++++++++++++++++++++++++++++++++++++++++++++++++++++++++++++++++",
"++++++++++++++++++++++++++++++++++++++++++++++++++++++++++++++++",
"++++++++++++++XXXX++++++++++++++++++++++++++++XXXX++++++++++++++",
"++++++++++++XX####XX++++++++++++++++++++++++XX####XX++++++++++++",
"++++++++++  X#****#X  ++++++++++++++++++++  X#****#X  ++++++++++",
"+++++++++ ************ ++++++++++++++++++ ************ +++++++++",
"+++++++++ #**********# ++++++++++++++++++ #**********# +++++++++",
"+++++o ++ X**********X ++ o++++++++++o ++ X**********X ++ o+++++",
"++++o=* +  **********  + *=o++++++++o=* +  **********  + *=o++++",
"+++ $=**o ##********## o**=$ ++++++ $=**o ##********## o**=$ +++",
"+++ =***o ##********## o***= ++++++ =***o ##********## o***= +++",
"++++ **o$o ###****### o$o** ++++++++ **o$o ###****### o$o** ++++",
"+++++  o$  **======**  $o  ++++++++++  o$  **======**  $o  +++++",
"+++++++  OOXX******XXOO  X++++++++++++X  OOXX******XXOO  +++++++",
"++++++X OOOOOXXXXXXOOOOO X++++++++++++X OOOOOXXXXXXOOOOO X++++++",
"++++++X OOOOOXOOOOXOOOOO #X++++++++++X# OOOOOXOOOOXOOOOO X++++++",
"+++++X## XOOXOOOOOOXOOX #$X++++++++++X$# XOOXOOOOOOXOOX ##X+++++",
"+++++X$# =XOXOOOOOOXOX= $XX++++++++++XX$ =XOXOOOOOOXOX= #$X+++++",
"+++++XX$ =XXXOO  OOXXX= XX++++++++++++XX =XXXOO  OOXXX= $XX+++++",
"++++++X  =XXXX ** XXXX= ++++++++++++++++ =XXXX ** XXXX=  X++++++",
"+++++++ X*XXXX ** XXXX*X ++++++++++++++ X*XXXX ** XXXX*X +++++++",
"+++++++ XX*XX #**# XX*XX ++++++++++++++ XX*XX #**# XX*XX +++++++",
"++++++++ XX* X####X *XXX ++++++++++++++ XXX* X####X *XX ++++++++",
"++++++++ XXXXX####XXXXX ++++++++++++++++ XXXXX####XXXXX ++++++++",
"+++++++++   ++    + XXX ++++++++++++++++ XXX +    ++   +++++++++",
"++++++++++++++++++++   ++++++++++++++++++   ++++++++++++++++++++",
"++++++++++++++++++++++++++++++++++++++++++++++++++++++++++++++++",
"++++++++++++++++++++++++++++++++++++++++++++++++++++++++++++++++",
"++++++++++++++++++++++++++++++++++++++++++++++++++++++++++++++++",
"++++++++++++++++++++++++++++++++++++++++++++++++++++++++++++++++",
"++++++++++++++++++++++++++++++++++++++++++++++++++++++++++++++++",
"++++++++++++++++++++++++++++++++++++++++++++++++++++++++++++++++",
"++++++++++++++++++++++++++++++++++++++++++++++++++++++++++++++++",
"++++++++++++++++++++++++++++++++++++++++++++++++++++++++++++++++",
"++++++++++++++++++++++++++++++++++++++++++++++++++++++++++++++++",
"++++++++++++++++++++++++++++++++++++++++++++++++++++++++++++++++",
"++++++++++++++++++XXX+++++++++++++++++++++++++++++XXX+++++++++++",
"+++++++++++++++ XX##*XX++++++++++++++++++++++++ XX##*XX+++++++++",
"++++++++++oo++ **#X****XX+++++++++++++++++oo++ **#X****XX+++++++",
"+++++++++o$*o+ X#*******#X+++++++++++++++o$*o+ X#*******#X++++++",
"+++++++++o   + X##*******X+++++++++++++++o   + X##*******X++++++",
"+++++++++ XXO #####**#**#X+++++++++++++++ XXO #####**#**#X++++++",
"++++++++ o==oOo@&##***X*#X++++++++++++++ o==oOo@&##***X*#X++++++",
"++++++++ =o *Oo&&&#**#X***X+++++++++++++ =o *Oo&&&#**#X***X+++++",
"+++++++.X$  $X#o&&#=X *#**X++++++++++++.X$  $X#o&&#=X *#**X+++++",
"++++++.XO $$ X# @&########X+++++++++++.XO $$ X# @&########X+++++",
"++++++.XOo  o=#X @&&&###X#X+++++++++++.XOo  o=*# @&&&###X#X+++++",
"++++++.XXOoo***#X  &&&&oXX++++++++++++.XXOoo****   &&&&oXX++++++",
"+++++ X.XXX*#**# @@   oo+++++++++++++ X.XXX*#***# @   oo++++++++",
"+++++ XX.XX*#***# &@@o+++++++++++++++ XX.XX*#**** &@@o++++++++++",
"+++++ XX..*X##**=o&&&o+++++++++++++++ XX..*X###**=o&&o++++++++++",
"+++    X.*## ##*oo&&&o+++++++++++++    X.*##X ###oo&&o++++++++++",
"++ **# ..*#**  * @@@ +++++++++++++ **# ..*#**#  * @@ +++++++++++",
"+++ **# .*#***  o&&& ++++++++++++++ **# .*#***#  @&& +++++++++++",
"++++  ##X o##**#o&& ++++++++++++++++  #X ##**# @@&& ++++++++++++",
"++++++    o#### @  +++++++++++++++++++  o#### @@@  +++++++++++++",
"+++++++++ #*#*=# ++++++++++++++++++++++ #*#*=#   +++++++++++++++",
"++++++++++      ++++++++++++++++++++++++      ++++++++++++++++++",
"++++++++++++++++++++++++++++++++++++++++++++++++++++++++++++++++",
"++++++++++++++++++++++++++++++++++++++++++++++++++++++++++++++++",
"++++++++++++++++++++++++++++++++++++++++++++++++++++++++++++++++",
"++++++++++++++++++++++++++++++++++++++++++++++++++++++++++++++++",
"++++++++++++++++++++++++++++++++++++++++++++++++++++++++++++++++",
"++++++++++++++++++++++++++++++++++++++++++++++++++++++++++++++++",
"++++++++++++++++++++++++++++++++++++++++++++++++++++++++++++++++",
"++++++++++++++++++++++++++++++++++++++++++++++++++++++++++++++++",
"++++++++++++++++++++++++++++++++++++++++++++++++++++++++++++++++",
"+++++++++++++XXXXXX++++++++++++++++++++++++++XXXXXX+++++++++++++",
"++++++++++XXX******XXX++++++++++++++++++++XXX******XXX++++++++++",
"+++++++++X***#****#***X++++++++++++++++++X***#****#***X+++++++++",
"+++++o ++XX**********XX++ o++++++++++o ++XX**********XX++ o+++++",
"++++o=* +X ********** X+ *=o++++++++o=* +X ********** X+ *=o++++",
"+++ $=**o #**********# o**=$ ++++++ $=**o #**********# o**=# +++",
"+++ =***o ##********## o***= ++++++ =***o ##********## o***= +++",
"++++ **o$ #=X*#**#*X=# $o** ++++++++ **o$ #=X*#**#*X=# #o** ++++",
"+++++  o$ #=X #**# X=#X$o  ++++++++++  o$X#=X #**# X=# $o  +++++",
"+++++++o # $$#****$## # o++++++++++++++o # $##****$## $ o+++++++",
"+++++++X** $##****##$ **X++++++++++++++X** $##***&$$$ **o+++++++",
"++++++X***= $$ #$ %% =***X++++++++++++X***= &$ ## &$ =***X++++++",
"++++++X***=@  &&&&  @=$**#X++++++++++X#**#=@  &&&&  @=***X++++++",
"+++++X#**$*$&&    $&$* ##=X++++++++++X=## *$&#    $&$*#**#X+++++",
"+++++X=## @&&&&&&&&&&@X* X++++++++++++X *X@&&&&&&&&&&@ ##=X+++++",
"++++++X *XX&&&&&&&&&&o#  ++++++++++++++  #o&&&&&&&&&&oo* X++++++",
"+++++++  **$$&&&&&&$$@*X++++++++++++++++X*@$$&&&&&&$&&*  +++++++",
"+++++++X***@@@@@@@@@@&**X++++++++++++++X***@@@@@@@@@@&**X+++++++",
"+++++++X#**# $&$$$&@$***X++++++++++++++X***#@$$$$$& $*&#X+++++++",
"++++++++X###  @@@@ #$**#X++++++++++++++X#**## @@@@  $##o++++++++",
"++++++++ *=# +    X#$##X++++++++++++++++X####o    + $=* ++++++++",
"+++++++++   +++++++ #=* ++++++++++++++++ *=# +++++++   +++++++++",
"++++++++++++++++++++   ++++++++++++++++++   ++++++++++++++++++++",
"++++++++++++++++++++++++++++++++++++++++++++++++++++++++++++++++",
"++++++++++++++++++++++++++++++++++++++++++++++++++++++++++++++++",
"++++++++++++++++++++++++++++++++++++++++++++++++++++++++++++++++",
"++++++++++++++++++++++++++++++++++++++++++++++++++++++++++++++++",
"++++++++++++++++++++++++++++++++++++++++++++++++++++++++++++++++",
"++++++++++++++++++++++++++++++++++++++++++++++++++++++++++++++++",
"++++++++++++++++++++++++++++++++++++++++++++++++++++++++++++++++",
"++++++++++++++++++++++++++++++++++++++++++++++++++++++++++++++++",
"++++++++++++++++++++++++++++++++++++++++++++++++++++++++++++++++",
"++++++++++++++++++++++++++++++++++++++++++++++++++++++++++++++++",
"+++++++++++XXX+++++++++++++++++++++++++++++XXX++++++++++++++++++",
"+++++++++XX*##XX ++++++++++++++++++++++++XX*##XX +++++++++++++++",
"+++++++XX****X#** ++oo+++++++++++++++++XX****X#** ++oo++++++++++",
"++++++X#*******#X +o*$o+++++++++++++++X#*******#X +o*$o+++++++++",
"++++++X*******##X +   o+++++++++++++++X*******##X +   o+++++++++",
"++++++X#**#**##### OXX +++++++++++++++X#**#**##### OXX +++++++++",
"++++++X#*X***##&@oOo==o ++++++++++++++X#*X***##&@oOo==o ++++++++",
"+++++X***X#**#&&&oO* o= +++++++++++++X***X#**#&&&oO* o= ++++++++",
"+++++X**#* X=#&&o#X$  $X.++++++++++++X**#* X=#&&o#X$  $X.+++++++",
"+++++X########&@ #X $$ OX.+++++++++++X########&@ #X $$ OX.++++++",
"+++++X#X###&&&@ X#=o  oOX.+++++++++++X#X###&&&@ #*=o  oOX.++++++",
"++++++XXo&&&&  X#***ooOXX.++++++++++++XXo&&&&   ****ooOXX.++++++",
"++++++++oo   @@ #**#*XXX.X +++++++++++++oo   @ #***#*XXX.X +++++",
"++++++++++o@@& #***#*XX.XX +++++++++++++++o@@& ****#*XX.XX +++++",
"++++++++++o&&&o=**##X*..XX +++++++++++++++o&&o=**###X*..XX +++++",
"++++++++++o&&&oo*## ##*.X    +++++++++++++o&&oo### X##*.X    +++",
"+++++++++++ @@@ *  **#*.. #** +++++++++++++ @@ *  #**#*.. #** ++",
"+++++++++++ &&&o  ***#*. #** ++++++++++++++ &&@  #***#*. #** +++",
"++++++++++++ &&o#**##o X##  ++++++++++++++++ &&@@ #**## X#  ++++",
"+++++++++++++  @ ####o    +++++++++++++++++++  @@@ ####o  ++++++",
"+++++++++++++++ #=*#*# ++++++++++++++++++++++++   #=*#*# +++++++",
"++++++++++++++++      ++++++++++++++++++++++++++++      ++++++++",
"++++++++++++++++++++++++++++++++++++++++++++++++++++++++++++++++",
"++++++++++++++++++++++++++++++++++++++++++++++++++++++++++++++++"
};
