/* XPM */
static char *entity_lvl_4[] = {
/* columns rows colors chars-per-pixel */
"64 128 10 1 ",
"  c gray15",
". c gray35",
"X c gray44",
"o c #7B7B7B",
"O c magenta",
"+ c gray55",
"@ c gray56",
"# c #B1B1B1",
"$ c gray80",
"% c gray95",
/* pixels */
"OOOOOOOOOOOOOOOOOOOOOOOOOOOOOOOOOOOOOOOOOOOOOOOOOOOOOOOOOOOOOOOO",
"OOOOOOOOOOOOOOOOOOOOOOOOOOOOOOOOOOOOOOOOOOOOOOOOOOOOOOOOOOOOOOOO",
"OOOOOOOOOOOOOOOOOOOOOOOOOOOOOOOOOOOOOOOOOOOOOOOOOOOOOOOOOOOOOOOO",
"OOOOOOOOOOOOOOOOOOOOOOOOOOOOOOOOOOOOOOOOOOOOOOOOOOOOOOOOOOOOOOOO",
"OOOOOOOOOOOOOOOOOOOOOOOOOOOOOOOOOOOOOOOOOOOOOOOOOOOOOOOOOOOOOOOO",
"OOOOOOOOOOOOOOOOOOOOOOOOOOOOOOOOOOOOOOOOOOOOOOOOOOOOOOOOOOOOOOOO",
"OOOOOOOOOOOOOOOOOOOOOOOOOOOOOOOOOOOOOOOOOOOOOOOOOOOOOOOOOOOOOOOO",
"OOOOOOOOOOOOOOOOOOOOOOOOOOOOOOOOOOOOOOOOOOOOOOOOOOOOOOOOOOOOOOOO",
"OOOOOOOOOOOOOOOOOOOOOOOOOOOOOOOOOOOOOOOOOOOOOOOOOOOOOOOOOOOOOOOO",
"OOOOOOOOOOOOOOOOOOOOOOOOOOOOOOOOOOOOOOOOOOOOOOOOOOOOOOOOOOOOOOOO",
"OOOOOOOOOOOOOOOOOOOOOOOOOOOOOOOOOOOOOOOOOOOOOO.....OOOOOOOOOOOOO",
"OOOOOOOOOOOOOO.....OOOOOOOOOOOOOOOOOOOOOOOOO..#####..OOOOOOOOOOO",
"OOOOOOOOOOOO..#####..OOOOOOOOOOOOOOOOOOOOOO.@@#######.OOOOOOOOOO",
"OOOOOOOOOOO.@@#######.OOOOOOOOOOOOOOOOOOOO #@@#######@.OOOOOOOOO",
"OOOOOOOOOO #@@#######@.OOOOOOOOOOOOOOOOOOO.##@@####@@@@.OOOOOOOO",
"OOOOOOOOO ###@@####@@@@.OOOOOOOOOOOOOOOOO @####@@@@####.OOOOOOOO",
"OOOOOOOOO @####@@@@####.OOOOOOOOOOOOOOOOO @@###########@.OOOOOOO",
"OOOOOOOO @@@###########@.OOOOOOOOOOOOOO  @@@###########@.OOOOOOO",
"OOOOOOO #@@@###########@.OOOOOOOOOOOOO ##@@@@#########@@.OOOOOOO",
"OOOOOO ###@@@#########@@.OOOOOOOOOOOO #####@@@######@@@@.OOOOOOO",
"OOOOO ##+##@@@######@@@@#.OOOOOOOOOOO ##+####@@@@#@@@@###.OOOOOO",
"OOOOO #+ +###@@@@#@@@@###.OOOOOOOOOOO  + +######@@#####+o.OOOOOO",
"OOOOO.  +o++####@@#####@oo.OOOOOOOOOO.  +o++##########+ooo.OOOOO",
"OOOO.+oo+++++++#####@@@ooo OOOOOOOOO.+oo+++++++#####+++ooo OOOOO",
"OOO.++ooooo+++++++++++oooo+ OOOOOOO.++ooooo+++++++++++oooo+ OOOO",
"OOO.++++ooooo+++oo+++ooo@@+ OOOOOOO.++++ooooo+++oo+++ooo+++ OOOO",
"OOOO.++++++++oo+++oooo++++ OOOOOOOOO.++++++++oo+++oooo++++ OOOOO",
"OOOOO.   ++++++++++++++++.OOOOOOOOOOO.   ++++++++++++++++.OOOOOO",
"OOOOOOOOO    +++++++++  .OOOOOOOOOOOOOOOO    +++++++++  .OOOOOOO",
"OOOOOOOOOOOOO         OOOOOOOOOOOOOOOOOOOOOOO         OOOOOOOOOO",
"OOOOOOOOOOOOOOOOOOOOOOOOOOOOOOOOOOOOOOOOOOOOOOOOOOOOOOOOOOOOOOOO",
"OOOOOOOOOOOOOOOOOOOOOOOOOOOOOOOOOOOOOOOOOOOOOOOOOOOOOOOOOOOOOOOO",
"OOOOOOOOOOOOOOOOOOOOOOOOOOOOOOOOOOOOOOOOOOOOOOOOOOOOOOOOOOOOOOOO",
"OOOOOOOOOOOOOOOOOOOOOOOOOOOOOOOOOOOOOOOOOOOOOOOOOOOOOOOOOOOOOOOO",
"OOOOOOOOOOOOOOOOOOOOOOOOOOOOOOOOOOOOOOOOOOOOOOOOOOOOOOOOOOOOOOOO",
"OOOOOOOOOOOOOOOOOOOOOOOOOOOOOOOOOOOOOOOOOOOOOOOOOOOOOOOOOOOOOOOO",
"OOOOOOOOOOOOOOOOOOOOOOOOOOOOOOOOOOOOOOOOOOOOOOOOOOOOOOOOOOOOOOOO",
"OOOOOOOOOOOOOOOOOOOOOOOOOOOOOOOOOOOOOOOOOOOOOOOOOOOOOOOOOOOOOOOO",
"OOOOOOOOOOOOOOOOOOOOOOOOOOOOOOOOOOOOOOOOOOOOOOOOOOOOOOOOOOOOOOOO",
"OOOOOOOOOOOOOOOOOOOOOOOOOOOOOOOOOOOOOOOOOOOOOOOOOOOOOOOOOOOOOOOO",
"OOOOOOOOOOOOOOOOOOOOOOOOOOOOOOOOOOOOOOOOOOOOOOOOOOOOOOOOOOOOOOOO",
"OOOOOOOOOOOOOOOOOOOOOOOOOOOOOOOOOOOOOOOOOOOOOOOOOOOOOOOOOOOOOOOO",
"OOOOOOOOOOOOOOOOOOOOOOOOOOOOOOOOOOOOOOOOOOOOOOOOO....OOOOOOOOOOO",
"OOOOOOOOOOOOOOOO.....OOOOOOOOOOOOOOOOOOOOOOOOOO..####..OOOOOOOOO",
"OOOOOOOOOOOOOO..#####..OOOOOOOOOOOOOOOOOOOOOOO.#######@.OOOOOOOO",
"OOOOOOOOOOOOO.@#######@.OOOOOOOOOOOOOOOOOOOOO.@########@.OOOOOOO",
"OOOOOOOOOOOO.##@#######@.OOOOOOOOOOOOOOOOOOO.##@#######@+.OOOOOO",
"OOOOOOOOOOO ####@@#####@+.OOOOOOOOOOOOOOOOOO.###@@####@+#.OOOOOO",
"OOOOOOOOOOO @#########@+#.OOOOOOOOOOOOOOOOO @#######@@###o.OOOOO",
"OOOOOOOOOO @@@######@@###o.OOOOOOOOOOOOOOO @@@####@@@+$$o#.OOOOO",
"OOOOOOOOOO @@@@###@@@+$$o#.OOOOOOOOOOOOOO o@@@@#####+%.%##.OOOOO",
"OOOOOOOOO +@##@@@###+%.%##.OOOOOOOOOOOOOO +@##@@@######+  OOOOOO",
"OOOOOOOO o+###+########+  OOOOOOOOOOOOOO o+###+oo####+  . OOOOOO",
"OOOOOOOO +o###o++####+  . OOOOOOOOOOOOOO +o#o###o ++ +.. OOOOOOO",
"OOOOOOO o++o###o ++  +.. OOOOOOOOOOOOOO o+++ #####   +.. OOOOOOO",
"OOOOOO.ooo+ ##### +..+..  OOOOOOOOOOOO.ooo+++ +##  ..+..  OOOOOO",
"OOOOO.++oooo +##  +o.+...+ OOOOOOOOOO.++oooo++   ++o.+...+ OOOOO",
"OOOOO.++++ooo   ++++o+..+oo OOOOOOOOO.++++ooo+++++++o+..+oo OOOO",
"OOOOOO.++++++ooooo++++++oo+ OOOOOOOOOO.++++++ooooo++++++oo+ OOOO",
"OOOOOOO.   +++++++++++oo++ OOOOOOOOOOOO.   +++++++++++oo++ OOOOO",
"OOOOOOOOOOO    +++++++++  OOOOOOOOOOOOOOOOO    +++++++++  OOOOOO",
"OOOOOOOOOOOOOOO         OOOOOOOOOOOOOOOOOOOOOOO         OOOOOOOO",
"OOOOOOOOOOOOOOOOOOOOOOOOOOOOOOOOOOOOOOOOOOOOOOOOOOOOOOOOOOOOOOOO",
"OOOOOOOOOOOOOOOOOOOOOOOOOOOOOOOOOOOOOOOOOOOOOOOOOOOOOOOOOOOOOOOO",
"OOOOOOOOOOOOOOOOOOOOOOOOOOOOOOOOOOOOOOOOOOOOOOOOOOOOOOOOOOOOOOOO",
"OOOOOOOOOOOOOOOOOOOOOOOOOOOOOOOOOOOOOOOOOOOOOOOOOOOOOOOOOOOOOOOO",
"OOOOOOOOOOOOOOOOOOOOOOOOOOOOOOOOOOOOOOOOOOOOOOOOOOOOOOOOOOOOOOOO",
"OOOOOOOOOOOOOOOOOOOOOOOOOOOOOOOOOOOOOOOOOOOOOOOOOOOOOOOOOOOOOOOO",
"OOOOOOOOOOOOOOOOOOOOOOOOOOOOOOOOOOOOOOOOOOOOOOOOOOOOOOOOOOOOOOOO",
"OOOOOOOOOOOOOOOOOOOOOOOOOOOOOOOOOOOOOOOOOOOOOOOOOOOOOOOOOOOOOOOO",
"OOOOOOOOOOOOOOOOOOOOOOOOOOOOOOOOOOOOOOOOOOOOOOOOOOOOOOOOOOOOOOOO",
"OOOOOOOOOOOOOOOOOOOOOOOOOOOOOOOOOOOOOOOOOOOOOOOOOOOOOOOOOOOOOOOO",
"OOOOOOOOOOOOOOOOOOOOOOOOOOOOOOOOOOOOOOOOOOOOOOOOOOOOOOOOOOOOOOOO",
"OOOOOOOOOOOOOOOOOOOOOOOOOOOOOOOOOOOOOOOOOOOOOOOOOOOOOOOOOOOOOOOO",
"OOOOOOOOOOOOOOOOOOOOOOOOOOOOOOOOOOOOOOOOOOOOO.....OOOOOOOOOOOOOO",
"OOOOOOOOOOOOO.....OOOOOOOOOOOOOOOOOOOOOOOOO..#####..OOOOOOOOOOOO",
"OOOOOOOOOOO..#####..OOOOOOOOOOOOOOOOOOOOOO.#########.OOOOOOOOOOO",
"OOOOOOOOOO.#########.OOOOOOOOOOOOOOOOOOOO.@#########@ OOOOOOOOOO",
"OOOOOOOOO.@#########@ OOOOOOOOOOOOOOOOOOO.@#########@  OOOOOOOOO",
"OOOOOOOO.+@#########@+ OOOOOOOOOOOOOOOOO.++@#######@++ OOOOOOOOO",
"OOOOOOOO.++@#######@++ OOOOOOOOOOOOOOOOO.++@@#####@++++ OOOOOOOO",
"OOOOOOO.o++@@#####@++o+ OOOOOOOOOOOOOOO.oo$$+#@@@@+$$o+ OOOOOOOO",
"OOOOOOO.+o$$+#@@@@+$$++ OOOOOOOOOOOOOOO.++%.%+@@#+%.%++# OOOOOOO",
"OOOOOOO.++%.%+@@#+%.%++# OOOOOOOOOOOOOO.+ +#########++o+# OOOOOO",
"OOOOOO.++ +#########+++## OOOOOOOOOOOO.++.  #######+ +o+## OOOOO",
"OOOOOO.++.  #######+ +o+# OOOOOOOOOOOO.++X..      + Xo##+# OOOOO",
"OOOOO.+o+X..      + X+o+## OOOOOOOOOO +#oo..      + X ##+ oOOOOO",
"OOOOO +#oo+.......+X+o##+# .OOOOOOOO +### +.......+X+o   ++.OOOO",
"OOOO +### ++XX....++o ##+ o+.OOOOOOO ### +++XX....++oooo++++.OOO",
"OOOO ### ++++++++++ooo   +++.OOOOOOOO   oo+++++++++ooo++++++.OOO",
"OOOOO   oo+++++oooo++++++++.OOOOOOOOOOo++++++++oooo++++++++.OOOO",
"OOOOOO.+++oo+++++++++++   .OOOOOOOOOOO.+++oo+++++++++++   .OOOOO",
"OOOOOOO.  +++++++++    OOOOOOOOOOOOOOOO.  +++++++++    OOOOOOOOO",
"OOOOOOOOOO         OOOOOOOOOOOOOOOOOOOOOOO         OOOOOOOOOOOOO",
"OOOOOOOOOOOOOOOOOOOOOOOOOOOOOOOOOOOOOOOOOOOOOOOOOOOOOOOOOOOOOOOO",
"OOOOOOOOOOOOOOOOOOOOOOOOOOOOOOOOOOOOOOOOOOOOOOOOOOOOOOOOOOOOOOOO",
"OOOOOOOOOOOOOOOOOOOOOOOOOOOOOOOOOOOOOOOOOOOOOOOOOOOOOOOOOOOOOOOO",
"OOOOOOOOOOOOOOOOOOOOOOOOOOOOOOOOOOOOOOOOOOOOOOOOOOOOOOOOOOOOOOOO",
"OOOOOOOOOOOOOOOOOOOOOOOOOOOOOOOOOOOOOOOOOOOOOOOOOOOOOOOOOOOOOOOO",
"OOOOOOOOOOOOOOOOOOOOOOOOOOOOOOOOOOOOOOOOOOOOOOOOOOOOOOOOOOOOOOOO",
"OOOOOOOOOOOOOOOOOOOOOOOOOOOOOOOOOOOOOOOOOOOOOOOOOOOOOOOOOOOOOOOO",
"OOOOOOOOOOOOOOOOOOOOOOOOOOOOOOOOOOOOOOOOOOOOOOOOOOOOOOOOOOOOOOOO",
"OOOOOOOOOOOOOOOOOOOOOOOOOOOOOOOOOOOOOOOOOOOOOOOOOOOOOOOOOOOOOOOO",
"OOOOOOOOOOOOOOOOOOOOOOOOOOOOOOOOOOOOOOOOOOOOOOOOOOOOOOOOOOOOOOOO",
"OOOOOOOOOOOOOOOOOOOOOOOOOOOOOOOOOOOOOOOOOOOOOOOOOOOOOOOOOOOOOOOO",
"OOOOOOOOOOOOOOOOOOOOOOOOOOOOOOOOOOOOOOOOOOOOOOOOOOOOOOOOOOOOOOOO",
"OOOOOOOOOOOOOOOOOOOOOOOOOOOOOOOOOOOOOOOOOOO....OOOOOOOOOOOOOOOOO",
"OOOOOOOOOOO.....OOOOOOOOOOOOOOOOOOOOOOOOO..####..OOOOOOOOOOOOOOO",
"OOOOOOOOO..#####..OOOOOOOOOOOOOOOOOOOOOO.@#######.OOOOOOOOOOOOOO",
"OOOOOOOO.@#######@.OOOOOOOOOOOOOOOOOOOO.@########@.OOOOOOOOOOOOO",
"OOOOOOO.@#######@##.OOOOOOOOOOOOOOOOOO.+@#######@##.OOOOOOOOOOOO",
"OOOOOO.+@#####@@#### OOOOOOOOOOOOOOOOO.#+@####@@###.OOOOOOOOOOOO",
"OOOOOO.#+@#########@ OOOOOOOOOOOOOOOO.o###@@#######@ OOOOOOOOOOO",
"OOOOO.o###@@######@@@ OOOOOOOOOOOOOOO.#o$$+@@@####@@@ OOOOOOOOOO",
"OOOOO.#o$$+@@@###@@@@ OOOOOOOOOOOOOOO.##%.%+#####@@@@o OOOOOOOOO",
"OOOOO.##%.%+###@@@##@+ OOOOOOOOOOOOOOO  +######@@@##@+ OOOOOOOOO",
"OOOOOO  +########+###+o OOOOOOOOOOOOOO .  +####oo+###+o OOOOOOOO",
"OOOOOO .  +####++o###o+ OOOOOOOOOOOOOOO ..+ ++ o###o#o+ OOOOOOOO",
"OOOOOOO ..+  ++ o###o++o OOOOOOOOOOOOOO ..+   ##### +++o OOOOOOO",
"OOOOOO  ..+..+ ##### +ooo.OOOOOOOOOOOO  ..+..  ##+ +++ooo.OOOOOO",
"OOOOO +...+.o+  ##+ oooo++.OOOOOOOOOO +...+.o++   ++oooo++.OOOOO",
"OOOO oo+..+o++++   ooo++++.OOOOOOOOO oo+..+o+++++++ooo++++.OOOOO",
"OOOO +oo++++++ooooo++++++.OOOOOOOOOO +oo++++++ooooo++++++.OOOOOO",
"OOOOO ++oo+++++++++++   .OOOOOOOOOOOO ++oo+++++++++++   .OOOOOOO",
"OOOOOO  +++++++++    OOOOOOOOOOOOOOOOO  +++++++++    OOOOOOOOOOO",
"OOOOOOOO         OOOOOOOOOOOOOOOOOOOOOOO         OOOOOOOOOOOOOOO",
"OOOOOOOOOOOOOOOOOOOOOOOOOOOOOOOOOOOOOOOOOOOOOOOOOOOOOOOOOOOOOOOO",
"OOOOOOOOOOOOOOOOOOOOOOOOOOOOOOOOOOOOOOOOOOOOOOOOOOOOOOOOOOOOOOOO"
};
