/* XPM */
static char *font_11[] = {
/* columns rows colors chars-per-pixel */
"752 13 2 1 ",
"  c black",
". c white",
/* pixels */
"                                                                                                                                                                                                                                                                                                                                                                                                                                                                                                                                                                                                                                                                                                                                                                                ",
"                                                                                                                                                                                                                                                                                                                                                                                                                                                                                                                                                                                                                                                                                                                                                                                ",
"   .      . .      . .     .      .                .        .     .        .       .                                 .    ...     ..      ...     ...       .     ....     ...   .....    ...     ...                                             ..      ...     ..    .....     ....  ....     .....   .....    ....  ... ...  .....    ....  ... ...  ...    ... ... ... ...   ...    ....     ...    ....     .. .   .....  ... ... ... ... ... ... ..   .. ... ...  .....     ..    .        ..                      .             ..                  ..              ..          ..         .       .    ..        ..                                                                                                                        .      .      .             ",
"   .      . .     . .     ...    . .       ..      .        .     .      .....     .                                .    .   .     .     .   .   .   .     ..     .       .      .   .   .   .   .   .                       .           .       .  .    .   .     .     .   .   .   .   .  .     .  .    .  .   .   .   .   .     .        .    .   .    .      .. ..   ..  .   .   .    .  .   .   .    .  .   .  ..   . . .   .   .   .   .   .   .   .   .   .   .   .   .     .      .        .      ...              .             .                   .             .             .                       .         .                                                             .                                                         .       .       .            ",
"   .      . .    .....   .        .       .        .       .       .       .       .                                .    .   .     .        .        .    . .     .      .           .   .   .   .   .    ..       ..      ..    .....    ..        .    .  ..    . .    .   .   .       .   .    . .     . .    .       .   .     .        .    .  .     .      .. ..   ..  .   .   .    .  .   .   .    .  .   .         .     .   .   .   .   . . .    . .     . .       .      .      .        .     .   .                    ...    . ..     ....    .. .    ...     ....    .. ..  . ..    ...     ....    . ...     .    ... .   .. ..     ...   .. ..     .. ..  .. ..    ....  .....   ..  ..  ... ... ... ...  .. ..  ... ...  .....     .       .       .            ",
"   .              . .     ..     ....     .                .       .      . .    .....           .....             .     .   .     .       .       ..    .  .     ...    ....       .     ...     ....                   ..                 ..     .     . . .    . .    ....    .       .   .    ...     ...    .       .....     .        .    ...      .      . . .   . . .   .   .    .  .   .   .    .  .    ...      .     .   .   .  .    . . .     .       .       .       .       .       .                             .   .   ..  .   .   .   .  ..   .   .     .     .  ..   ..  .     .        .    .  .      .     . . .   ..  .   .   .   ..  .   .  ..    ..     .       .       .   .   .   .   .   .    . .    .   .   .  .      .       .       .      .. .  ",
"   .              . .       .      .     . ..              .       .               .                               .     .   .     .      .          .   .....       .   .   .      .    .   .       .                     ..    .....    ..       .     . . .    ...    .   .   .       .   .    . .     . .    .  ...  .   .     .     .  .    .  .     .  .   .   .   . . .   .   .    ...    .   .    ...        .     .     .   .    . .    . . .    . .      .      .        .       .       .                              ....   .   .   .       .   .   .....     .     .   .   .   .     .        .    ...       .     . . .   .   .   .   .   .   .   .   .    .       ...    .       .   .   .  .    . . .     .      . .      .      ..       .       ..    . ..   ",
"                 .....   ...      . .    .  .              .       .               .                              .      .   .     .     .       .   .      .    .   .   .   .     .     .   .      .              ..        .           .               .  ..   .   .   .   .   .   .   .  .     .  .    .      .   .   .   .     .     .  .    .   .    .  .   .   .   .  ..   .   .    .      .   .    .  .   .   .     .     .   .    . .    . . .   .   .     .     .   .     .       .       .                             .   .   .   .   .       .   .   .         .     .   .   .   .     .        .    .  .      .     . . .   .   .   .   .   .   .   .   .    .          .   .   .   .  ..    . .    . . .    . .     . .     .  .     .       .       .            ",
"   .              . .     .        .      ....              .     .                .       ..             ..      .       ...    .....   .....    ...      ...    ...     ...      .      ...    ...      ..      ..                              ..     .      ... ... .....     ...   ....     .....   ...      ...   ... ...  .....    ..    ...  ..  .....  ... ... ... ..    ...    ...      ...    ... ..  ....     ...     ...     ..      . .   ..   ..   ...    .....     .        .      .                             ...... .....     ....    .....   ....    ....    ....  ... ...  .....      .   .. ...   .....  ....... ... ...   ...    ....     ....   ....    ....     ...     .. ..   ..      . .    .. ..     .     .....     .       .       .            ",
"                 . .      .                                 .     .                       ..                     .                                                                                                .                                       ....                                                                                                                                     ...                                                                             ..       .     ..                                                                                 .                      .                                            .           .                                                             .               .       .       .            ",
"                                                                                          .                                                                                                                                                                                                                                                                                                                                                                                                                                                                                       ...                    ...                                            ...         ...                                                          ...                .             .             ",
"                                                                                                                                                                                                                                                                                                                                                                                                                                                                                                                .......                                                                                                                                                                                                                                                         ",
"                                                                                                                                                                                                                                                                                                                                                                                                                                                                                                                                                                                                                                                                                                                                                                                "
};
