/* XPM */
static char *ground[] = {
/* columns rows colors chars-per-pixel */
"64 16 4 1 ",
"  c #277E5D",
". c #4D9775",
"X c #5D9F86",
"o c #75A88E",
/* pixels */
"................................................................",
"..........................................X........ ............",
".......................................X..X..X.. .. .. .........",
"..................... ..................X...X.... ... ..........",
".................. .. .. .......................................",
"...... ............ ... ....................................X...",
"... .. .. ...............................................X..X..X",
".... ... .................................................X...X.",
"................................................................",
"...........................o....................................",
"........................o..o..o.................................",
".........................o...o..................................",
"................................................................",
"............................................................ ...",
"......................................................... .. .. ",
".......................................................... ... ."
};
