/* XPM */
static char *loot[] = {
/* columns rows colors chars-per-pixel */
"70 10 178 2 ",
"   c black",
".  c #0C2F00",
"X  c #1F3A01",
"o  c #163C04",
"O  c #0D3000",
"+  c #213A04",
"@  c #25371F",
"#  c #243421",
"$  c #37372A",
"%  c #52000E",
"&  c #5D0111",
"*  c #6C0914",
"=  c #680514",
"-  c #75091A",
";  c #483B1F",
":  c #491E23",
">  c #483D22",
",  c #462939",
"<  c #7E2B21",
"1  c #1A4500",
"2  c #1D4A00",
"3  c #1D400E",
"4  c #20430F",
"5  c #204E00",
"6  c #295C00",
"7  c #214211",
"8  c #346D00",
"9  c #397500",
"0  c #4C4838",
"q  c #5A593F",
"w  c #5A5539",
"e  c #575026",
"r  c #6D6538",
"t  c #3F3D56",
"y  c #661F43",
"u  c #5B2245",
"i  c #652242",
"p  c #633B42",
"a  c #772E53",
"s  c #4F544D",
"d  c #555646",
"f  c #7E7545",
"g  c #4D556A",
"h  c #564F75",
"j  c #574F79",
"k  c #4F5272",
"l  c #555078",
"z  c #5A5179",
"x  c #555366",
"c  c #617274",
"v  c #62767D",
"b  c #6F7666",
"n  c #840016",
"m  c #96001A",
"M  c #A9001D",
"N  c #891424",
"B  c #951929",
"V  c #AD0F24",
"C  c #B40C25",
"Z  c #B80A26",
"A  c #A8172A",
"S  c #B1192E",
"D  c #843932",
"F  c #B92C3C",
"G  c #BA2537",
"H  c #C11A31",
"J  c #C40C24",
"K  c #E30D2B",
"L  c #F40B2B",
"P  c #FD092B",
"I  c #F90729",
"U  c #E8102D",
"Y  c #FF0E30",
"T  c #EF1936",
"R  c #C9263A",
"E  c #CD2A3D",
"W  c #C12338",
"Q  c #D0263C",
"!  c #8C3A47",
"~  c #903F4C",
"^  c #963462",
"/  c #D43747",
"(  c #CE3243",
")  c #91404B",
"_  c #8D4651",
"`  c #914352",
"'  c #934D56",
"]  c #8D404B",
"[  c #8D7E41",
"{  c #8B4E76",
"}  c #984974",
"|  c #88577B",
" . c #AD5161",
".. c #A74676",
"X. c #B44C7D",
"o. c #A2517E",
"O. c #98696C",
"+. c #CD5C6C",
"@. c #418300",
"#. c #498E00",
"$. c #468A00",
"%. c #4C9400",
"&. c #55A100",
"*. c #5AA900",
"=. c #988849",
"-. c #998D5B",
";. c #8A804B",
":. c #A18F4E",
">. c #AB9C64",
",. c #AFA069",
"<. c #B9AC7E",
"1. c #949573",
"2. c #CB8D75",
"3. c #D28D7C",
"4. c #C58D6F",
"5. c #5D5D87",
"6. c #705D80",
"7. c #637781",
"8. c #6E6E93",
"9. c #77798C",
"0. c #526F82",
"q. c #955984",
"w. c #BA5688",
"e. c #AA5482",
"r. c #836981",
"t. c #A07D83",
"y. c #C55A8D",
"u. c #C05689",
"i. c #D87B89",
"p. c #E87C8D",
"a. c #E87F90",
"s. c #778884",
"d. c #858996",
"f. c #B9828C",
"g. c #AB8588",
"h. c #B3AD8F",
"j. c #BFB488",
"k. c #A3A892",
"l. c #8D8DAF",
"z. c #9B9BB9",
"x. c #A091A4",
"c. c #89A6B9",
"v. c #DF8E89",
"b. c #E28D8B",
"n. c #EA8C99",
"m. c #E49695",
"M. c #C0B58A",
"N. c #F09CA7",
"B. c #C2B0B8",
"V. c #C3A8A9",
"C. c #EBB5BB",
"Z. c #CAC3A5",
"A. c #D7D0B6",
"S. c #D1C9AA",
"D. c #89B4DD",
"F. c #A7A7C1",
"G. c #ABAAC3",
"H. c #B6AFC1",
"J. c #B6B6CB",
"K. c #BBBBCF",
"L. c #8FB7E0",
"P. c #F8BFC8",
"I. c #AECAE5",
"U. c #D0D0DD",
"Y. c #C8D3D5",
"T. c #F1C5CC",
"R. c #E2DDCB",
"E. c #FAD8DE",
"W. c #DFE3DF",
"Q. c #EAE6D9",
"!. c #DBDBE4",
"~. c #C7D7E5",
"^. c #EFECE3",
"/. c #E7E8EA",
"(. c #F8E1E4",
"). c #F4F2EC",
"_. c #EFEFF3",
"`. c #F6F6F8",
/* pixels */
"                      s w w d v d q 0     p ' ) ) ` ) ' p     , i i i i i i ,     t h j j j k k p     # 4 4 4 4 4 4 #     : * * * * * * :   ",
"    Q W     W Q     s b [ [ -.Y.h.-.e $ p f.T.n.p.p.n.T.f.p , a e.} e.X.X.X.a , t 8.F.F.x.x.F.F.8.t # 6 %.%.@.@.%.%.6 # : N R ( ( R G E N : ",
"  A L U C V U L A   7.Y.S.M.>.Q.^.^.-.> ' T.(.m.3.3.m.(.T._ i e.6.k e.y.y.y.X.u h F.H.O.D D O.H.F.k 7 #.*.@.1 1 %.*.%.X * R / ( B - N / R * ",
"  T P P Y Y P P T   c Y.^.R.:.,.j.^.h.> ! n.m.b.3.3.b.m.n.! y ^ r.d.{ y.y.y.X.u 5.G.t.< g.g.N g.G.k 7 %.%.5 . o 1 %.%.o * Q / N % * B / E * ",
"  T L P P I P L T   q =.S.).A.j.,.^.Y.g ! p.3.3.4.2.3.3.p.~ i ..| r.e.w.| | w.u h G.B.V.!.!.V.B.G.k 3 %.8 . o 1 . 8 %.+ * Q G = & & & W E * ",
"  N Y P P P P P N   c 1.<.A.^.A.=.>.-.e ! p.v.4.3.3.2.2.p.~ i X.w.e.y.q.9.x } u h F.U.`._./.`.U.G.k 3 %.@.1 1 1 1 #.%.+ * R B % m m % B E * ",
"    V Y P P P V     v k.,.=.A.).R.j.[ ; ] C.P.3.4.2.b.C.C.~ y X.y.y.y.} d.9.} y 5.F.K.!._._.!.K.G.k 3 %.*.%.6 9 %.*.%.+ * R F B M M N F E * ",
"      J P I J       v I.W.>.<.Z./.Z.f ; ] C.(.N.n.n.N.E.C.` i ..w.y.w.w.} } ..u h F.G.J.K.J.J.G.z.k 3 @.&.%.9 %.&.&.9 X * H / F S S G / H * ",
"        K K         s 0.L.s.b r c.D.g $ ,  .p.+.+.+.+.i. .p , y ^ ^ ^ ^ ^ ^ i , s 5.l.l.l.l.l.l.5.t @ 1 8 8 8 8 8 8 1 # : n C Z Z Z Z C n : ",
"                      s 7.v c q c 7.d     p ' ' ` ! ` _ p     , i i i i i i ,     t h 5.h h h h t     # 7 7 3 7 3 7 #     : * * * * * * :   "
};
